G04 #@! TF.GenerationSoftware,KiCad,Pcbnew,6.0.2*
G04 #@! TF.CreationDate,2022-03-08T20:49:10-05:00*
G04 #@! TF.ProjectId,TbKB,54624b42-2e6b-4696-9361-645f70636258,0.0*
G04 #@! TF.SameCoordinates,Original*
G04 #@! TF.FileFunction,Soldermask,Bot*
G04 #@! TF.FilePolarity,Negative*
%FSLAX46Y46*%
G04 Gerber Fmt 4.6, Leading zero omitted, Abs format (unit mm)*
G04 Created by KiCad (PCBNEW 6.0.2) date 2022-03-08 20:49:10*
%MOMM*%
%LPD*%
G01*
G04 APERTURE LIST*
G04 Aperture macros list*
%AMRoundRect*
0 Rectangle with rounded corners*
0 $1 Rounding radius*
0 $2 $3 $4 $5 $6 $7 $8 $9 X,Y pos of 4 corners*
0 Add a 4 corners polygon primitive as box body*
4,1,4,$2,$3,$4,$5,$6,$7,$8,$9,$2,$3,0*
0 Add four circle primitives for the rounded corners*
1,1,$1+$1,$2,$3*
1,1,$1+$1,$4,$5*
1,1,$1+$1,$6,$7*
1,1,$1+$1,$8,$9*
0 Add four rect primitives between the rounded corners*
20,1,$1+$1,$2,$3,$4,$5,0*
20,1,$1+$1,$4,$5,$6,$7,0*
20,1,$1+$1,$6,$7,$8,$9,0*
20,1,$1+$1,$8,$9,$2,$3,0*%
G04 Aperture macros list end*
%ADD10O,1.000000X1.600000*%
%ADD11O,1.000000X2.100000*%
%ADD12R,0.600000X1.450000*%
%ADD13R,0.300000X1.450000*%
%ADD14C,0.650000*%
%ADD15R,1.800000X0.820000*%
%ADD16R,1.800000X0.850000*%
%ADD17C,3.987800*%
%ADD18C,3.000000*%
%ADD19C,1.701800*%
%ADD20R,2.550000X2.500000*%
%ADD21R,1.750000X1.750000*%
%ADD22C,1.750000*%
%ADD23C,2.700000*%
%ADD24C,3.048000*%
%ADD25C,3.050000*%
%ADD26C,4.000000*%
%ADD27RoundRect,0.140000X-0.170000X0.140000X-0.170000X-0.140000X0.170000X-0.140000X0.170000X0.140000X0*%
%ADD28RoundRect,0.250000X0.250000X0.475000X-0.250000X0.475000X-0.250000X-0.475000X0.250000X-0.475000X0*%
%ADD29R,1.100000X1.100000*%
%ADD30R,1.500000X2.000000*%
%ADD31R,3.800000X2.000000*%
%ADD32RoundRect,0.140000X-0.140000X-0.170000X0.140000X-0.170000X0.140000X0.170000X-0.140000X0.170000X0*%
%ADD33C,0.700000*%
%ADD34C,4.400000*%
%ADD35RoundRect,0.140000X0.170000X-0.140000X0.170000X0.140000X-0.170000X0.140000X-0.170000X-0.140000X0*%
%ADD36RoundRect,0.140000X0.140000X0.170000X-0.140000X0.170000X-0.140000X-0.170000X0.140000X-0.170000X0*%
%ADD37R,0.900000X1.000000*%
%ADD38RoundRect,0.150000X-0.150000X0.650000X-0.150000X-0.650000X0.150000X-0.650000X0.150000X0.650000X0*%
%ADD39R,0.660400X0.812800*%
%ADD40RoundRect,0.250000X0.475000X-0.250000X0.475000X0.250000X-0.475000X0.250000X-0.475000X-0.250000X0*%
%ADD41RoundRect,0.050000X0.387500X0.050000X-0.387500X0.050000X-0.387500X-0.050000X0.387500X-0.050000X0*%
%ADD42RoundRect,0.050000X0.050000X0.387500X-0.050000X0.387500X-0.050000X-0.387500X0.050000X-0.387500X0*%
%ADD43RoundRect,0.144000X1.456000X1.456000X-1.456000X1.456000X-1.456000X-1.456000X1.456000X-1.456000X0*%
G04 APERTURE END LIST*
D10*
G04 #@! TO.C,X1*
X108770000Y-23550000D03*
D11*
X108770000Y-27730000D03*
X100130000Y-27730000D03*
D10*
X100130000Y-23550000D03*
D12*
X101200000Y-28645000D03*
X102000000Y-28645000D03*
D13*
X102700000Y-28645000D03*
X103700000Y-28645000D03*
X105200000Y-28645000D03*
X106200000Y-28645000D03*
D12*
X106900000Y-28645000D03*
X107700000Y-28645000D03*
X107700000Y-28645000D03*
X106900000Y-28645000D03*
D13*
X105700000Y-28645000D03*
X104700000Y-28645000D03*
X104200000Y-28645000D03*
X103200000Y-28645000D03*
D12*
X102000000Y-28645000D03*
X101200000Y-28645000D03*
D14*
X101560000Y-27200000D03*
X107340000Y-27200000D03*
G04 #@! TD*
D15*
G04 #@! TO.C,D118*
X243025000Y-114932500D03*
X248275000Y-114932500D03*
D16*
X248275000Y-113177500D03*
D15*
X243025000Y-113182500D03*
G04 #@! TD*
G04 #@! TO.C,D130*
X206925118Y-29907500D03*
X212175118Y-29907500D03*
D16*
X212175118Y-28152500D03*
D15*
X206925118Y-28157500D03*
G04 #@! TD*
D17*
G04 #@! TO.C,K_47*
X111918750Y-91187500D03*
D18*
X115728750Y-93727500D03*
X109378750Y-96267500D03*
D19*
X116998750Y-91187500D03*
X106838750Y-91187500D03*
D20*
X105628750Y-96267500D03*
X119478750Y-93727500D03*
G04 #@! TD*
D18*
G04 #@! TO.C,K_57*
X302260000Y-96267500D03*
D19*
X309880000Y-91187500D03*
D18*
X308610000Y-93727500D03*
D17*
X304800000Y-91187500D03*
D19*
X299720000Y-91187500D03*
D20*
X298510000Y-96267500D03*
X312360000Y-93727500D03*
G04 #@! TD*
D18*
G04 #@! TO.C,K_4*
X168910000Y-39117500D03*
D17*
X171450000Y-34037500D03*
D19*
X166370000Y-34037500D03*
X176530000Y-34037500D03*
D18*
X175260000Y-36577500D03*
D20*
X165160000Y-39117500D03*
X179010000Y-36577500D03*
G04 #@! TD*
D19*
G04 #@! TO.C,K_12*
X318770000Y-34037500D03*
D18*
X327660000Y-36577500D03*
D19*
X328930000Y-34037500D03*
D18*
X321310000Y-39117500D03*
D17*
X323850000Y-34037500D03*
D20*
X317560000Y-39117500D03*
X331410000Y-36577500D03*
G04 #@! TD*
D15*
G04 #@! TO.C,D131*
X340275118Y-29907500D03*
X345525118Y-29907500D03*
D16*
X345525118Y-28152500D03*
D15*
X340275118Y-28157500D03*
G04 #@! TD*
G04 #@! TO.C,D78*
X383137618Y-87057500D03*
X388387618Y-87057500D03*
D16*
X388387618Y-85302500D03*
D15*
X383137618Y-85307500D03*
G04 #@! TD*
D19*
G04 #@! TO.C,K_39*
X271780000Y-72137500D03*
D18*
X264160000Y-77217500D03*
D17*
X266700000Y-72137500D03*
D18*
X270510000Y-74677500D03*
D19*
X261620000Y-72137500D03*
D20*
X260410000Y-77217500D03*
X274260000Y-74677500D03*
G04 #@! TD*
D18*
G04 #@! TO.C,K_55*
X270510000Y-93727500D03*
D19*
X261620000Y-91187500D03*
D18*
X264160000Y-96267500D03*
D19*
X271780000Y-91187500D03*
D17*
X266700000Y-91187500D03*
D20*
X260410000Y-96267500D03*
X274260000Y-93727500D03*
G04 #@! TD*
D15*
G04 #@! TO.C,D120*
X187875118Y-29907500D03*
X193125118Y-29907500D03*
D16*
X193125118Y-28152500D03*
D15*
X187875118Y-28157500D03*
G04 #@! TD*
G04 #@! TO.C,D125*
X302175118Y-68007500D03*
X307425118Y-68007500D03*
D16*
X307425118Y-66252500D03*
D15*
X302175118Y-66257500D03*
G04 #@! TD*
G04 #@! TO.C,D83*
X225975118Y-48957500D03*
X231225118Y-48957500D03*
D16*
X231225118Y-47202500D03*
D15*
X225975118Y-47207500D03*
G04 #@! TD*
G04 #@! TO.C,D137*
X359325118Y-91820000D03*
X364575118Y-91820000D03*
D16*
X364575118Y-90065000D03*
D15*
X359325118Y-90070000D03*
G04 #@! TD*
G04 #@! TO.C,D135*
X347405000Y-76575000D03*
X342155000Y-76575000D03*
D16*
X342155000Y-78330000D03*
D15*
X347405000Y-78325000D03*
G04 #@! TD*
G04 #@! TO.C,D121*
X321225118Y-29907500D03*
X326475118Y-29907500D03*
D16*
X326475118Y-28152500D03*
D15*
X321225118Y-28157500D03*
G04 #@! TD*
G04 #@! TO.C,D129*
X90243868Y-92062500D03*
X95493868Y-92062500D03*
D16*
X95493868Y-90307500D03*
D15*
X90243868Y-90312500D03*
G04 #@! TD*
D19*
G04 #@! TO.C,K_5*
X195580000Y-34037500D03*
X185420000Y-34037500D03*
D18*
X187960000Y-39117500D03*
X194310000Y-36577500D03*
D17*
X190500000Y-34037500D03*
D20*
X184210000Y-39117500D03*
X198060000Y-36577500D03*
G04 #@! TD*
D15*
G04 #@! TO.C,D111*
X302175118Y-29907500D03*
X307425118Y-29907500D03*
D16*
X307425118Y-28152500D03*
D15*
X302175118Y-28157500D03*
G04 #@! TD*
G04 #@! TO.C,D112*
X149775118Y-48957500D03*
X155025118Y-48957500D03*
D16*
X155025118Y-47202500D03*
D15*
X149775118Y-47207500D03*
G04 #@! TD*
G04 #@! TO.C,D76*
X364087618Y-68007500D03*
X369337618Y-68007500D03*
D16*
X369337618Y-66252500D03*
D15*
X364087618Y-66257500D03*
G04 #@! TD*
D19*
G04 #@! TO.C,K_16*
X104457500Y-53087500D03*
D18*
X106997500Y-58167500D03*
D17*
X109537500Y-53087500D03*
D18*
X113347500Y-55627500D03*
D19*
X114617500Y-53087500D03*
D20*
X103247500Y-58167500D03*
X117097500Y-55627500D03*
G04 #@! TD*
D18*
G04 #@! TO.C,K_26*
X302260000Y-58167500D03*
D19*
X299720000Y-53087500D03*
X309880000Y-53087500D03*
D17*
X304800000Y-53087500D03*
D18*
X308610000Y-55627500D03*
D20*
X298510000Y-58167500D03*
X312360000Y-55627500D03*
G04 #@! TD*
D18*
G04 #@! TO.C,K_63*
X141922500Y-112777500D03*
D19*
X133032500Y-110237500D03*
X143192500Y-110237500D03*
D17*
X138112500Y-110237500D03*
D18*
X135572500Y-115317500D03*
D20*
X131822500Y-115317500D03*
X145672500Y-112777500D03*
G04 #@! TD*
D15*
G04 #@! TO.C,D95*
X245025118Y-68007500D03*
X250275118Y-68007500D03*
D16*
X250275118Y-66252500D03*
D15*
X245025118Y-66257500D03*
G04 #@! TD*
G04 #@! TO.C,D104*
X130725118Y-68007500D03*
X135975118Y-68007500D03*
D16*
X135975118Y-66252500D03*
D15*
X130725118Y-66257500D03*
G04 #@! TD*
G04 #@! TO.C,D90*
X130725118Y-29912500D03*
X135975118Y-29912500D03*
D16*
X135975118Y-28157500D03*
D15*
X130725118Y-28162500D03*
G04 #@! TD*
D19*
G04 #@! TO.C,K_66*
X244951250Y-110237500D03*
D17*
X250031250Y-110237500D03*
D18*
X246221250Y-107697500D03*
X252571250Y-105157500D03*
D19*
X255111250Y-110237500D03*
D20*
X256321250Y-105157500D03*
X242471250Y-107697500D03*
G04 #@! TD*
D19*
G04 #@! TO.C,K_28*
X338455000Y-53087500D03*
D18*
X335915000Y-48007500D03*
X329565000Y-50547500D03*
D19*
X328295000Y-53087500D03*
D17*
X333375000Y-53087500D03*
D20*
X339665000Y-48007500D03*
X325815000Y-50547500D03*
G04 #@! TD*
D19*
G04 #@! TO.C,K_8*
X242570000Y-34037500D03*
X252730000Y-34037500D03*
D18*
X251460000Y-36577500D03*
D17*
X247650000Y-34037500D03*
D18*
X245110000Y-39117500D03*
D20*
X241360000Y-39117500D03*
X255210000Y-36577500D03*
G04 #@! TD*
D19*
G04 #@! TO.C,K_64*
X167005000Y-110237500D03*
X156845000Y-110237500D03*
D17*
X161925000Y-110237500D03*
D18*
X159385000Y-115317500D03*
X165735000Y-112777500D03*
D20*
X155635000Y-115317500D03*
X169485000Y-112777500D03*
G04 #@! TD*
D15*
G04 #@! TO.C,D94*
X106912618Y-68007500D03*
X112162618Y-68007500D03*
D16*
X112162618Y-66252500D03*
D15*
X106912618Y-66257500D03*
G04 #@! TD*
D19*
G04 #@! TO.C,K_59*
X325913750Y-91187500D03*
D18*
X334803750Y-93727500D03*
X328453750Y-96267500D03*
D17*
X330993750Y-91187500D03*
D19*
X336073750Y-91187500D03*
D20*
X324703750Y-96267500D03*
X338553750Y-93727500D03*
G04 #@! TD*
D17*
G04 #@! TO.C,K_65*
X228600000Y-110237500D03*
D19*
X233680000Y-110237500D03*
X223520000Y-110237500D03*
D18*
X231140000Y-105157500D03*
X224790000Y-107697500D03*
D20*
X234890000Y-105157500D03*
X221040000Y-107697500D03*
G04 #@! TD*
D15*
G04 #@! TO.C,D87*
X225975118Y-87057500D03*
X231225118Y-87057500D03*
D16*
X231225118Y-85302500D03*
D15*
X225975118Y-85307500D03*
G04 #@! TD*
D17*
G04 #@! TO.C,K_10*
X285750000Y-34037500D03*
D18*
X283210000Y-39117500D03*
X289560000Y-36577500D03*
D19*
X280670000Y-34037500D03*
X290830000Y-34037500D03*
D20*
X279460000Y-39117500D03*
X293310000Y-36577500D03*
G04 #@! TD*
D15*
G04 #@! TO.C,D100*
X149775118Y-29907500D03*
X155025118Y-29907500D03*
D16*
X155025118Y-28152500D03*
D15*
X149775118Y-28157500D03*
G04 #@! TD*
D19*
G04 #@! TO.C,K_20*
X185420000Y-53087500D03*
D18*
X187960000Y-58167500D03*
D17*
X190500000Y-53087500D03*
D18*
X194310000Y-55627500D03*
D19*
X195580000Y-53087500D03*
D20*
X184210000Y-58167500D03*
X198060000Y-55627500D03*
G04 #@! TD*
D15*
G04 #@! TO.C,D71*
X225975118Y-29907500D03*
X231225118Y-29907500D03*
D16*
X231225118Y-28152500D03*
D15*
X225975118Y-28157500D03*
G04 #@! TD*
D18*
G04 #@! TO.C,K_38*
X245110000Y-77217500D03*
D17*
X247650000Y-72137500D03*
D18*
X251460000Y-74677500D03*
D19*
X252730000Y-72137500D03*
X242570000Y-72137500D03*
D20*
X241360000Y-77217500D03*
X255210000Y-74677500D03*
G04 #@! TD*
D18*
G04 #@! TO.C,K_24*
X270510000Y-55627500D03*
D17*
X266700000Y-53087500D03*
D19*
X261620000Y-53087500D03*
D18*
X264160000Y-58167500D03*
D19*
X271780000Y-53087500D03*
D20*
X260410000Y-58167500D03*
X274260000Y-55627500D03*
G04 #@! TD*
D18*
G04 #@! TO.C,K_69*
X308610000Y-112777500D03*
D17*
X304800000Y-110237500D03*
D19*
X299720000Y-110237500D03*
D18*
X302260000Y-115317500D03*
D19*
X309880000Y-110237500D03*
D20*
X298510000Y-115317500D03*
X312360000Y-112777500D03*
G04 #@! TD*
D15*
G04 #@! TO.C,D107*
X264075118Y-87057500D03*
X269325118Y-87057500D03*
D16*
X269325118Y-85302500D03*
D15*
X264075118Y-85307500D03*
G04 #@! TD*
D19*
G04 #@! TO.C,K_27*
X325913750Y-53087500D03*
D17*
X330993750Y-53087500D03*
D18*
X334803750Y-55627500D03*
D19*
X336073750Y-53087500D03*
D18*
X328453750Y-58167500D03*
D20*
X324703750Y-58167500D03*
X338553750Y-55627500D03*
G04 #@! TD*
D17*
G04 #@! TO.C,K_1*
X114300000Y-34037500D03*
D19*
X119380000Y-34037500D03*
X109220000Y-34037500D03*
D18*
X111760000Y-39117500D03*
X118110000Y-36577500D03*
D20*
X108010000Y-39117500D03*
X121860000Y-36577500D03*
G04 #@! TD*
D15*
G04 #@! TO.C,D128*
X262825000Y-108032500D03*
X268075000Y-108032500D03*
D16*
X268075000Y-106277500D03*
D15*
X262825000Y-106282500D03*
G04 #@! TD*
G04 #@! TO.C,D70*
X97875118Y-28162500D03*
X92625118Y-28162500D03*
D16*
X92625118Y-29917500D03*
D15*
X97875118Y-29912500D03*
G04 #@! TD*
D18*
G04 #@! TO.C,K_53*
X232410000Y-93727500D03*
D19*
X233680000Y-91187500D03*
X223520000Y-91187500D03*
D17*
X228600000Y-91187500D03*
D18*
X226060000Y-96267500D03*
D20*
X222310000Y-96267500D03*
X236160000Y-93727500D03*
G04 #@! TD*
D15*
G04 #@! TO.C,D97*
X245025118Y-87057500D03*
X250275118Y-87057500D03*
D16*
X250275118Y-85302500D03*
D15*
X245025118Y-85307500D03*
G04 #@! TD*
G04 #@! TO.C,D72*
X364087618Y-29907500D03*
X369337618Y-29907500D03*
D16*
X369337618Y-28152500D03*
D15*
X364087618Y-28157500D03*
G04 #@! TD*
G04 #@! TO.C,D119*
X92625118Y-111112500D03*
X97875118Y-111112500D03*
D16*
X97875118Y-109357500D03*
D15*
X92625118Y-109362500D03*
G04 #@! TD*
D21*
G04 #@! TO.C,RV1*
X76200000Y-34037500D03*
D22*
X72700000Y-34037500D03*
X76200000Y-107537500D03*
D23*
X70250000Y-103387500D03*
X78650000Y-102187500D03*
X70250000Y-38187500D03*
X78650000Y-39387500D03*
G04 #@! TD*
D15*
G04 #@! TO.C,D84*
X383137618Y-48957500D03*
X388387618Y-48957500D03*
D16*
X388387618Y-47202500D03*
D15*
X383137618Y-47207500D03*
G04 #@! TD*
G04 #@! TO.C,D85*
X225975118Y-68007500D03*
X231225118Y-68007500D03*
D16*
X231225118Y-66252500D03*
D15*
X225975118Y-66257500D03*
G04 #@! TD*
D18*
G04 #@! TO.C,K_space1*
X209391250Y-115317500D03*
D19*
X206851250Y-110237500D03*
D18*
X215741250Y-112777500D03*
D19*
X217011250Y-110237500D03*
D17*
X211931250Y-110237500D03*
D20*
X205641250Y-115317500D03*
X219491250Y-112777500D03*
G04 #@! TD*
D19*
G04 #@! TO.C,K_51*
X195580000Y-91187500D03*
D18*
X194310000Y-93727500D03*
D17*
X190500000Y-91187500D03*
D18*
X187960000Y-96267500D03*
D19*
X185420000Y-91187500D03*
D20*
X184210000Y-96267500D03*
X198060000Y-93727500D03*
G04 #@! TD*
D19*
G04 #@! TO.C,K_49*
X157480000Y-91187500D03*
X147320000Y-91187500D03*
D17*
X152400000Y-91187500D03*
D18*
X156210000Y-93727500D03*
X149860000Y-96267500D03*
D20*
X146110000Y-96267500D03*
X159960000Y-93727500D03*
G04 #@! TD*
D15*
G04 #@! TO.C,D74*
X364087618Y-48957500D03*
X369337618Y-48957500D03*
D16*
X369337618Y-47202500D03*
D15*
X364087618Y-47207500D03*
G04 #@! TD*
G04 #@! TO.C,D86*
X383137618Y-68007500D03*
X388387618Y-68007500D03*
D16*
X388387618Y-66252500D03*
D15*
X383137618Y-66257500D03*
G04 #@! TD*
G04 #@! TO.C,D88*
X111675118Y-106107500D03*
X116925118Y-106107500D03*
D16*
X116925118Y-104352500D03*
D15*
X111675118Y-104357500D03*
G04 #@! TD*
D17*
G04 #@! TO.C,K_19*
X171450000Y-53087500D03*
D18*
X168910000Y-58167500D03*
D19*
X166370000Y-53087500D03*
D18*
X175260000Y-55627500D03*
D19*
X176530000Y-53087500D03*
D20*
X165160000Y-58167500D03*
X179010000Y-55627500D03*
G04 #@! TD*
D24*
G04 #@! TO.C,2U_STAB*
X321437000Y-46102500D03*
D17*
X345313000Y-61312500D03*
X321437000Y-61312500D03*
D24*
X345313000Y-46102500D03*
G04 #@! TD*
D19*
G04 #@! TO.C,K_43*
X336073750Y-72137500D03*
D17*
X330993750Y-72137500D03*
D18*
X328453750Y-77217500D03*
D19*
X325913750Y-72137500D03*
D18*
X334803750Y-74677500D03*
D20*
X324703750Y-77217500D03*
X338553750Y-74677500D03*
G04 #@! TD*
D15*
G04 #@! TO.C,D79*
X302175118Y-106107500D03*
X307425118Y-106107500D03*
D16*
X307425118Y-104352500D03*
D15*
X302175118Y-104357500D03*
G04 #@! TD*
D25*
G04 #@! TO.C,U41*
X238093250Y-103237500D03*
D26*
X261969250Y-118477500D03*
X238093250Y-118477500D03*
D25*
X261969250Y-103237500D03*
G04 #@! TD*
D15*
G04 #@! TO.C,D134*
X187875118Y-68007500D03*
X193125118Y-68007500D03*
D16*
X193125118Y-66252500D03*
D15*
X187875118Y-66257500D03*
G04 #@! TD*
D17*
G04 #@! TO.C,K_17*
X133350000Y-53087500D03*
D19*
X138430000Y-53087500D03*
D18*
X137160000Y-55627500D03*
X130810000Y-58167500D03*
D19*
X128270000Y-53087500D03*
D20*
X127060000Y-58167500D03*
X140910000Y-55627500D03*
G04 #@! TD*
D19*
G04 #@! TO.C,K_0*
X90170000Y-34037500D03*
X100330000Y-34037500D03*
D18*
X99060000Y-36577500D03*
X92710000Y-39117500D03*
D17*
X95250000Y-34037500D03*
D20*
X88960000Y-39117500D03*
X102810000Y-36577500D03*
G04 #@! TD*
D15*
G04 #@! TO.C,D127*
X302175118Y-87057500D03*
X307425118Y-87057500D03*
D16*
X307425118Y-85302500D03*
D15*
X302175118Y-85307500D03*
G04 #@! TD*
D18*
G04 #@! TO.C,K_52*
X207010000Y-96267500D03*
D19*
X214630000Y-91187500D03*
D17*
X209550000Y-91187500D03*
D18*
X213360000Y-93727500D03*
D19*
X204470000Y-91187500D03*
D20*
X203260000Y-96267500D03*
X217110000Y-93727500D03*
G04 #@! TD*
D19*
G04 #@! TO.C,K_33*
X157480000Y-72137500D03*
D18*
X149860000Y-77217500D03*
D19*
X147320000Y-72137500D03*
D17*
X152400000Y-72137500D03*
D18*
X156210000Y-74677500D03*
D20*
X146110000Y-77217500D03*
X159960000Y-74677500D03*
G04 #@! TD*
D15*
G04 #@! TO.C,D80*
X111675118Y-29912500D03*
X116925118Y-29912500D03*
D16*
X116925118Y-28157500D03*
D15*
X111675118Y-28162500D03*
G04 #@! TD*
G04 #@! TO.C,D136*
X187875118Y-87057500D03*
X193125118Y-87057500D03*
D16*
X193125118Y-85302500D03*
D15*
X187875118Y-85307500D03*
G04 #@! TD*
G04 #@! TO.C,D133*
X318250000Y-54750000D03*
X323500000Y-54750000D03*
D16*
X323500000Y-52995000D03*
D15*
X318250000Y-53000000D03*
G04 #@! TD*
G04 #@! TO.C,D98*
X135487618Y-106107500D03*
X140737618Y-106107500D03*
D16*
X140737618Y-104352500D03*
D15*
X135487618Y-104357500D03*
G04 #@! TD*
G04 #@! TO.C,D122*
X168825118Y-48957500D03*
X174075118Y-48957500D03*
D16*
X174075118Y-47202500D03*
D15*
X168825118Y-47207500D03*
G04 #@! TD*
D18*
G04 #@! TO.C,K_space1*
X194310000Y-112777500D03*
D19*
X185420000Y-110237500D03*
D18*
X187960000Y-115317500D03*
D17*
X190500000Y-110237500D03*
D19*
X195580000Y-110237500D03*
D20*
X184210000Y-115317500D03*
X198060000Y-112777500D03*
G04 #@! TD*
D21*
G04 #@! TO.C,RV2*
X57150000Y-34037500D03*
D22*
X53650000Y-34037500D03*
X57150000Y-107537500D03*
D23*
X59600000Y-102187500D03*
X51200000Y-38187500D03*
X51200000Y-103387500D03*
X59600000Y-39387500D03*
G04 #@! TD*
D19*
G04 #@! TO.C,K_45*
X371792500Y-72137500D03*
D17*
X366712500Y-72137500D03*
D18*
X364172500Y-77217500D03*
X370522500Y-74677500D03*
D19*
X361632500Y-72137500D03*
D20*
X360422500Y-77217500D03*
X374272500Y-74677500D03*
G04 #@! TD*
D19*
G04 #@! TO.C,K_62*
X109220000Y-110237500D03*
D18*
X118110000Y-112777500D03*
X111760000Y-115317500D03*
D19*
X119380000Y-110237500D03*
D17*
X114300000Y-110237500D03*
D20*
X108010000Y-115317500D03*
X121860000Y-112777500D03*
G04 #@! TD*
D17*
G04 #@! TO.C,K_21*
X209550000Y-53087500D03*
D18*
X213360000Y-55627500D03*
D19*
X214630000Y-53087500D03*
X204470000Y-53087500D03*
D18*
X207010000Y-58167500D03*
D20*
X203260000Y-58167500D03*
X217110000Y-55627500D03*
G04 #@! TD*
D15*
G04 #@! TO.C,D91*
X264075118Y-29907500D03*
X269325118Y-29907500D03*
D16*
X269325118Y-28152500D03*
D15*
X264075118Y-28157500D03*
G04 #@! TD*
D19*
G04 #@! TO.C,K_7*
X233680000Y-34037500D03*
D17*
X228600000Y-34037500D03*
D19*
X223520000Y-34037500D03*
D18*
X232410000Y-36577500D03*
X226060000Y-39117500D03*
D20*
X222310000Y-39117500D03*
X236160000Y-36577500D03*
G04 #@! TD*
D17*
G04 #@! TO.C,K_22*
X228600000Y-53087500D03*
D18*
X232410000Y-55627500D03*
D19*
X223520000Y-53087500D03*
D18*
X226060000Y-58167500D03*
D19*
X233680000Y-53087500D03*
D20*
X222310000Y-58167500D03*
X236160000Y-55627500D03*
G04 #@! TD*
D15*
G04 #@! TO.C,D101*
X283125118Y-29907500D03*
X288375118Y-29907500D03*
D16*
X288375118Y-28152500D03*
D15*
X283125118Y-28157500D03*
G04 #@! TD*
G04 #@! TO.C,D108*
X153825000Y-106107500D03*
X159075000Y-106107500D03*
D16*
X159075000Y-104352500D03*
D15*
X153825000Y-104357500D03*
G04 #@! TD*
D18*
G04 #@! TO.C,K_3*
X156210000Y-36577500D03*
D19*
X147320000Y-34037500D03*
X157480000Y-34037500D03*
D17*
X152400000Y-34037500D03*
D18*
X149860000Y-39117500D03*
D20*
X146110000Y-39117500D03*
X159960000Y-36577500D03*
G04 #@! TD*
D19*
G04 #@! TO.C,K_48*
X128270000Y-91187500D03*
D18*
X130810000Y-96267500D03*
D19*
X138430000Y-91187500D03*
D18*
X137160000Y-93727500D03*
D17*
X133350000Y-91187500D03*
D20*
X127060000Y-96267500D03*
X140910000Y-93727500D03*
G04 #@! TD*
D15*
G04 #@! TO.C,D89*
X340275118Y-110870000D03*
X345525118Y-110870000D03*
D16*
X345525118Y-109115000D03*
D15*
X340275118Y-109120000D03*
G04 #@! TD*
G04 #@! TO.C,D123*
X302175118Y-48957500D03*
X307425118Y-48957500D03*
D16*
X307425118Y-47202500D03*
D15*
X302175118Y-47207500D03*
G04 #@! TD*
D17*
G04 #@! TO.C,K_34*
X171450000Y-72137500D03*
D19*
X166370000Y-72137500D03*
D18*
X175260000Y-74677500D03*
D19*
X176530000Y-72137500D03*
D18*
X168910000Y-77217500D03*
D20*
X165160000Y-77217500D03*
X179010000Y-74677500D03*
G04 #@! TD*
D17*
G04 #@! TO.C,K_11*
X304800000Y-34037500D03*
D19*
X299720000Y-34037500D03*
D18*
X302260000Y-39117500D03*
D19*
X309880000Y-34037500D03*
D18*
X308610000Y-36577500D03*
D20*
X298510000Y-39117500D03*
X312360000Y-36577500D03*
G04 #@! TD*
D15*
G04 #@! TO.C,D92*
X106912618Y-48957500D03*
X112162618Y-48957500D03*
D16*
X112162618Y-47202500D03*
D15*
X106912618Y-47207500D03*
G04 #@! TD*
G04 #@! TO.C,D73*
X206925118Y-48957500D03*
X212175118Y-48957500D03*
D16*
X212175118Y-47202500D03*
D15*
X206925118Y-47207500D03*
G04 #@! TD*
D19*
G04 #@! TO.C,K_54*
X242570000Y-91187500D03*
D17*
X247650000Y-91187500D03*
D18*
X251460000Y-93727500D03*
X245110000Y-96267500D03*
D19*
X252730000Y-91187500D03*
D20*
X241360000Y-96267500D03*
X255210000Y-93727500D03*
G04 #@! TD*
D18*
G04 #@! TO.C,K_71*
X359410000Y-120080000D03*
X365760000Y-117540000D03*
D17*
X361950000Y-115000000D03*
D19*
X356870000Y-115000000D03*
X367030000Y-115000000D03*
D20*
X355660000Y-120080000D03*
X369510000Y-117540000D03*
G04 #@! TD*
D19*
G04 #@! TO.C,K_31*
X104457500Y-72137500D03*
D18*
X113347500Y-74677500D03*
D19*
X114617500Y-72137500D03*
D17*
X109537500Y-72137500D03*
D18*
X106997500Y-77217500D03*
D20*
X103247500Y-77217500D03*
X117097500Y-74677500D03*
G04 #@! TD*
D18*
G04 #@! TO.C,K_58*
X324802500Y-88647500D03*
D17*
X328612500Y-91187500D03*
D18*
X331152500Y-86107500D03*
D19*
X323532500Y-91187500D03*
X333692500Y-91187500D03*
D20*
X334902500Y-86107500D03*
X321052500Y-88647500D03*
G04 #@! TD*
D17*
G04 #@! TO.C,K_35*
X190500000Y-72137500D03*
D19*
X185420000Y-72137500D03*
D18*
X194310000Y-74677500D03*
D19*
X195580000Y-72137500D03*
D18*
X187960000Y-77217500D03*
D20*
X184210000Y-77217500D03*
X198060000Y-74677500D03*
G04 #@! TD*
D15*
G04 #@! TO.C,D132*
X187875118Y-48957500D03*
X193125118Y-48957500D03*
D16*
X193125118Y-47202500D03*
D15*
X187875118Y-47207500D03*
G04 #@! TD*
G04 #@! TO.C,D105*
X264075118Y-68007500D03*
X269325118Y-68007500D03*
D16*
X269325118Y-66252500D03*
D15*
X264075118Y-66257500D03*
G04 #@! TD*
G04 #@! TO.C,D96*
X109293868Y-87057500D03*
X114543868Y-87057500D03*
D16*
X114543868Y-85302500D03*
D15*
X109293868Y-85307500D03*
G04 #@! TD*
D18*
G04 #@! TO.C,K_15*
X383222500Y-39117500D03*
X389572500Y-36577500D03*
D17*
X385762500Y-34037500D03*
D19*
X390842500Y-34037500D03*
X380682500Y-34037500D03*
D20*
X379472500Y-39117500D03*
X393322500Y-36577500D03*
G04 #@! TD*
D15*
G04 #@! TO.C,D106*
X130725118Y-87057500D03*
X135975118Y-87057500D03*
D16*
X135975118Y-85302500D03*
D15*
X130725118Y-85307500D03*
G04 #@! TD*
D18*
G04 #@! TO.C,K_18*
X156210000Y-55627500D03*
D17*
X152400000Y-53087500D03*
D19*
X147320000Y-53087500D03*
D18*
X149860000Y-58167500D03*
D19*
X157480000Y-53087500D03*
D20*
X146110000Y-58167500D03*
X159960000Y-55627500D03*
G04 #@! TD*
D15*
G04 #@! TO.C,D103*
X264075118Y-48957500D03*
X269325118Y-48957500D03*
D16*
X269325118Y-47202500D03*
D15*
X264075118Y-47207500D03*
G04 #@! TD*
D19*
G04 #@! TO.C,K_61*
X367030000Y-95950000D03*
D18*
X359410000Y-101030000D03*
D19*
X356870000Y-95950000D03*
D18*
X365760000Y-98490000D03*
D17*
X361950000Y-95950000D03*
D20*
X355660000Y-101030000D03*
X369510000Y-98490000D03*
G04 #@! TD*
D19*
G04 #@! TO.C,K_60*
X380682500Y-91187500D03*
D17*
X385762500Y-91187500D03*
D18*
X383222500Y-96267500D03*
D19*
X390842500Y-91187500D03*
D18*
X389572500Y-93727500D03*
D20*
X379472500Y-96267500D03*
X393322500Y-93727500D03*
G04 #@! TD*
D18*
G04 #@! TO.C,K_70*
X346710000Y-117540000D03*
X340360000Y-120080000D03*
D19*
X337820000Y-115000000D03*
D17*
X342900000Y-115000000D03*
D19*
X347980000Y-115000000D03*
D20*
X336610000Y-120080000D03*
X350460000Y-117540000D03*
G04 #@! TD*
D15*
G04 #@! TO.C,D82*
X383137618Y-29907500D03*
X388387618Y-29907500D03*
D16*
X388387618Y-28152500D03*
D15*
X383137618Y-28157500D03*
G04 #@! TD*
D21*
G04 #@! TO.C,RV3*
X38100000Y-34037500D03*
D22*
X34600000Y-34037500D03*
X38100000Y-107537500D03*
D23*
X40550000Y-102187500D03*
X32150000Y-38187500D03*
X32150000Y-103387500D03*
X40550000Y-39387500D03*
G04 #@! TD*
D15*
G04 #@! TO.C,D110*
X168825118Y-29907500D03*
X174075118Y-29907500D03*
D16*
X174075118Y-28152500D03*
D15*
X168825118Y-28157500D03*
G04 #@! TD*
D17*
G04 #@! TO.C,K_14*
X366712500Y-34037500D03*
D19*
X371792500Y-34037500D03*
D18*
X370522500Y-36577500D03*
D19*
X361632500Y-34037500D03*
D18*
X364172500Y-39117500D03*
D20*
X360422500Y-39117500D03*
X374272500Y-36577500D03*
G04 #@! TD*
D19*
G04 #@! TO.C,K_36*
X214630000Y-72137500D03*
D17*
X209550000Y-72137500D03*
D18*
X213360000Y-74677500D03*
X207010000Y-77217500D03*
D19*
X204470000Y-72137500D03*
D20*
X203260000Y-77217500D03*
X217110000Y-74677500D03*
G04 #@! TD*
D15*
G04 #@! TO.C,D115*
X283125118Y-68007500D03*
X288375118Y-68007500D03*
D16*
X288375118Y-66252500D03*
D15*
X283125118Y-66257500D03*
G04 #@! TD*
G04 #@! TO.C,D93*
X245025118Y-48957500D03*
X250275118Y-48957500D03*
D16*
X250275118Y-47202500D03*
D15*
X245025118Y-47207500D03*
G04 #@! TD*
G04 #@! TO.C,D117*
X283125118Y-87057500D03*
X288375118Y-87057500D03*
D16*
X288375118Y-85302500D03*
D15*
X283125118Y-85307500D03*
G04 #@! TD*
G04 #@! TO.C,D77*
X206925118Y-87057500D03*
X212175118Y-87057500D03*
D16*
X212175118Y-85302500D03*
D15*
X206925118Y-85307500D03*
G04 #@! TD*
G04 #@! TO.C,D99*
X359325118Y-110870000D03*
X364575118Y-110870000D03*
D16*
X364575118Y-109115000D03*
D15*
X359325118Y-109120000D03*
G04 #@! TD*
G04 #@! TO.C,D116*
X149775118Y-87057500D03*
X155025118Y-87057500D03*
D16*
X155025118Y-85302500D03*
D15*
X149775118Y-85307500D03*
G04 #@! TD*
D18*
G04 #@! TO.C,K_50*
X168910000Y-96267500D03*
D17*
X171450000Y-91187500D03*
D18*
X175260000Y-93727500D03*
D19*
X176530000Y-91187500D03*
X166370000Y-91187500D03*
D20*
X165160000Y-96267500D03*
X179010000Y-93727500D03*
G04 #@! TD*
D19*
G04 #@! TO.C,K_46*
X390842500Y-72137500D03*
D18*
X389572500Y-74677500D03*
D19*
X380682500Y-72137500D03*
D18*
X383222500Y-77217500D03*
D17*
X385762500Y-72137500D03*
D20*
X379472500Y-77217500D03*
X393322500Y-74677500D03*
G04 #@! TD*
D19*
G04 #@! TO.C,K_30*
X390842500Y-53087500D03*
D18*
X383222500Y-58167500D03*
D17*
X385762500Y-53087500D03*
D18*
X389572500Y-55627500D03*
D19*
X380682500Y-53087500D03*
D20*
X379472500Y-58167500D03*
X393322500Y-55627500D03*
G04 #@! TD*
D19*
G04 #@! TO.C,K_42*
X318770000Y-72137500D03*
D18*
X320040000Y-69597500D03*
D19*
X328930000Y-72137500D03*
D17*
X323850000Y-72137500D03*
D18*
X326390000Y-67057500D03*
D20*
X330140000Y-67057500D03*
X316290000Y-69597500D03*
G04 #@! TD*
D19*
G04 #@! TO.C,K_9*
X271780000Y-34037500D03*
D17*
X266700000Y-34037500D03*
D18*
X264160000Y-39117500D03*
X270510000Y-36577500D03*
D19*
X261620000Y-34037500D03*
D20*
X260410000Y-39117500D03*
X274260000Y-36577500D03*
G04 #@! TD*
D18*
G04 #@! TO.C,K_2*
X137160000Y-36577500D03*
D19*
X128270000Y-34037500D03*
D18*
X130810000Y-39117500D03*
D17*
X133350000Y-34037500D03*
D19*
X138430000Y-34037500D03*
D20*
X127060000Y-39117500D03*
X140910000Y-36577500D03*
G04 #@! TD*
D18*
G04 #@! TO.C,K_40*
X283210000Y-77217500D03*
D19*
X290830000Y-72137500D03*
X280670000Y-72137500D03*
D18*
X289560000Y-74677500D03*
D17*
X285750000Y-72137500D03*
D20*
X279460000Y-77217500D03*
X293310000Y-74677500D03*
G04 #@! TD*
D15*
G04 #@! TO.C,D138*
X280743868Y-106107500D03*
X285993868Y-106107500D03*
D16*
X285993868Y-104352500D03*
D15*
X280743868Y-104357500D03*
G04 #@! TD*
D18*
G04 #@! TO.C,K_41*
X302260000Y-77217500D03*
D19*
X299720000Y-72137500D03*
D17*
X304800000Y-72137500D03*
D18*
X308610000Y-74677500D03*
D19*
X309880000Y-72137500D03*
D20*
X298510000Y-77217500D03*
X312360000Y-74677500D03*
G04 #@! TD*
D19*
G04 #@! TO.C,K_6*
X204470000Y-34037500D03*
D18*
X213360000Y-36577500D03*
D17*
X209550000Y-34037500D03*
D19*
X214630000Y-34037500D03*
D18*
X207010000Y-39117500D03*
D20*
X203260000Y-39117500D03*
X217110000Y-36577500D03*
G04 #@! TD*
D19*
G04 #@! TO.C,K_56*
X290830000Y-91187500D03*
D18*
X283210000Y-96267500D03*
X289560000Y-93727500D03*
D19*
X280670000Y-91187500D03*
D17*
X285750000Y-91187500D03*
D20*
X279460000Y-96267500D03*
X293310000Y-93727500D03*
G04 #@! TD*
D19*
G04 #@! TO.C,K_13*
X337820000Y-34037500D03*
D18*
X346710000Y-36577500D03*
X340360000Y-39117500D03*
D19*
X347980000Y-34037500D03*
D17*
X342900000Y-34037500D03*
D20*
X336610000Y-39117500D03*
X350460000Y-36577500D03*
G04 #@! TD*
D18*
G04 #@! TO.C,K_72*
X378460000Y-120080000D03*
D17*
X381000000Y-115000000D03*
D19*
X375920000Y-115000000D03*
D18*
X384810000Y-117540000D03*
D19*
X386080000Y-115000000D03*
D20*
X374710000Y-120080000D03*
X388560000Y-117540000D03*
G04 #@! TD*
D18*
G04 #@! TO.C,K_space1*
X196215000Y-107697500D03*
D17*
X200025000Y-110237500D03*
D19*
X205105000Y-110237500D03*
X194945000Y-110237500D03*
D18*
X202565000Y-105157500D03*
D20*
X206315000Y-105157500D03*
X192465000Y-107697500D03*
G04 #@! TD*
D18*
G04 #@! TO.C,K_32*
X130810000Y-77217500D03*
X137160000Y-74677500D03*
D19*
X128270000Y-72137500D03*
D17*
X133350000Y-72137500D03*
D19*
X138430000Y-72137500D03*
D20*
X127060000Y-77217500D03*
X140910000Y-74677500D03*
G04 #@! TD*
D17*
G04 #@! TO.C,6.25U SPACE STAB*
X161931250Y-118462500D03*
X261931250Y-118462500D03*
D24*
X161931250Y-103252500D03*
X261931250Y-103252500D03*
G04 #@! TD*
D15*
G04 #@! TO.C,D124*
X168825118Y-68007500D03*
X174075118Y-68007500D03*
D16*
X174075118Y-66252500D03*
D15*
X168825118Y-66257500D03*
G04 #@! TD*
G04 #@! TO.C,D102*
X130725118Y-48957500D03*
X135975118Y-48957500D03*
D16*
X135975118Y-47202500D03*
D15*
X130725118Y-47207500D03*
G04 #@! TD*
G04 #@! TO.C,D113*
X283125118Y-48957500D03*
X288375118Y-48957500D03*
D16*
X288375118Y-47202500D03*
D15*
X283125118Y-47207500D03*
G04 #@! TD*
G04 #@! TO.C,D126*
X168825118Y-87057500D03*
X174075118Y-87057500D03*
D16*
X174075118Y-85302500D03*
D15*
X168825118Y-85307500D03*
G04 #@! TD*
G04 #@! TO.C,D109*
X378375118Y-110870000D03*
X383625118Y-110870000D03*
D16*
X383625118Y-109115000D03*
D15*
X378375118Y-109120000D03*
G04 #@! TD*
G04 #@! TO.C,D114*
X149775118Y-68007500D03*
X155025118Y-68007500D03*
D16*
X155025118Y-66252500D03*
D15*
X149775118Y-66257500D03*
G04 #@! TD*
G04 #@! TO.C,D81*
X245025118Y-29907500D03*
X250275118Y-29907500D03*
D16*
X250275118Y-28152500D03*
D15*
X245025118Y-28157500D03*
G04 #@! TD*
D19*
G04 #@! TO.C,K_44*
X337820000Y-72137500D03*
D17*
X342900000Y-72137500D03*
D18*
X345440000Y-67057500D03*
D19*
X347980000Y-72137500D03*
D18*
X339090000Y-69597500D03*
D20*
X349190000Y-67057500D03*
X335340000Y-69597500D03*
G04 #@! TD*
D19*
G04 #@! TO.C,K_29*
X361632500Y-53087500D03*
D17*
X366712500Y-53087500D03*
D19*
X371792500Y-53087500D03*
D18*
X364172500Y-58167500D03*
X370522500Y-55627500D03*
D20*
X360422500Y-58167500D03*
X374272500Y-55627500D03*
G04 #@! TD*
D18*
G04 #@! TO.C,K_37*
X226060000Y-77217500D03*
D19*
X233680000Y-72137500D03*
X223520000Y-72137500D03*
D17*
X228600000Y-72137500D03*
D18*
X232410000Y-74677500D03*
D20*
X222310000Y-77217500D03*
X236160000Y-74677500D03*
G04 #@! TD*
D15*
G04 #@! TO.C,D139*
X87862618Y-73012500D03*
X93112618Y-73012500D03*
D16*
X93112618Y-71257500D03*
D15*
X87862618Y-71262500D03*
G04 #@! TD*
D19*
G04 #@! TO.C,K_25*
X280670000Y-53087500D03*
X290830000Y-53087500D03*
D18*
X289560000Y-55627500D03*
X283210000Y-58167500D03*
D17*
X285750000Y-53087500D03*
D20*
X279460000Y-58167500D03*
X293310000Y-55627500D03*
G04 #@! TD*
D17*
G04 #@! TO.C,K_23*
X247650000Y-53087500D03*
D19*
X252730000Y-53087500D03*
D18*
X251460000Y-55627500D03*
D19*
X242570000Y-53087500D03*
D18*
X245110000Y-58167500D03*
D20*
X241360000Y-58167500D03*
X255210000Y-55627500D03*
G04 #@! TD*
D17*
G04 #@! TO.C,K_68*
X283368750Y-110237500D03*
D19*
X288448750Y-110237500D03*
X278288750Y-110237500D03*
D18*
X280828750Y-115317500D03*
X287178750Y-112777500D03*
D20*
X277078750Y-115317500D03*
X290928750Y-112777500D03*
G04 #@! TD*
D17*
G04 #@! TO.C,3U SPACE STAB*
X180975000Y-118462500D03*
X219075000Y-118462500D03*
D24*
X180975000Y-103252500D03*
X219075000Y-103252500D03*
G04 #@! TD*
D19*
G04 #@! TO.C,K_67*
X264636250Y-110237500D03*
D18*
X263366250Y-112777500D03*
X257016250Y-115317500D03*
D17*
X259556250Y-110237500D03*
D19*
X254476250Y-110237500D03*
D20*
X253266250Y-115317500D03*
X267116250Y-112777500D03*
G04 #@! TD*
D15*
G04 #@! TO.C,D75*
X206925118Y-68007500D03*
X212175118Y-68007500D03*
D16*
X212175118Y-66252500D03*
D15*
X206925118Y-66257500D03*
G04 #@! TD*
D27*
G04 #@! TO.C,C40*
X241250000Y-112170000D03*
X241250000Y-113130000D03*
G04 #@! TD*
D28*
G04 #@! TO.C,C1*
X101940000Y-42180000D03*
X100040000Y-42180000D03*
G04 #@! TD*
D29*
G04 #@! TO.C,D69*
X376400000Y-124000000D03*
X373600000Y-124000000D03*
G04 #@! TD*
G04 #@! TO.C,D4*
X107318750Y-100187500D03*
X104518750Y-100187500D03*
G04 #@! TD*
D30*
G04 #@! TO.C,U1*
X99980000Y-44630000D03*
D31*
X102280000Y-50930000D03*
D30*
X102280000Y-44630000D03*
X104580000Y-44630000D03*
G04 #@! TD*
D29*
G04 #@! TO.C,D12*
X147800000Y-62087500D03*
X145000000Y-62087500D03*
G04 #@! TD*
G04 #@! TO.C,D0*
X90750000Y-43037500D03*
X87950000Y-43037500D03*
G04 #@! TD*
D27*
G04 #@! TO.C,C43*
X205455000Y-27303500D03*
X205455000Y-28263500D03*
G04 #@! TD*
G04 #@! TO.C,C21*
X338805000Y-27303500D03*
X338805000Y-28263500D03*
G04 #@! TD*
D29*
G04 #@! TO.C,D55*
X319250000Y-81137500D03*
X316450000Y-81137500D03*
G04 #@! TD*
G04 #@! TO.C,D24*
X209712500Y-119237500D03*
X206912500Y-119237500D03*
G04 #@! TD*
G04 #@! TO.C,D37*
X238600000Y-99600000D03*
X238600000Y-96800000D03*
G04 #@! TD*
D27*
G04 #@! TO.C,C87*
X381667500Y-84453500D03*
X381667500Y-85413500D03*
G04 #@! TD*
G04 #@! TO.C,C56*
X186405000Y-27303500D03*
X186405000Y-28263500D03*
G04 #@! TD*
D29*
G04 #@! TO.C,D19*
X162450000Y-99350000D03*
X162450000Y-96550000D03*
G04 #@! TD*
D32*
G04 #@! TO.C,C13*
X87120000Y-48000000D03*
X88080000Y-48000000D03*
G04 #@! TD*
D27*
G04 #@! TO.C,C78*
X300705000Y-65403500D03*
X300705000Y-66363500D03*
G04 #@! TD*
D29*
G04 #@! TO.C,D34*
X243050000Y-43037500D03*
X240250000Y-43037500D03*
G04 #@! TD*
D33*
G04 #@! TO.C,H3*
X345313000Y-54962500D03*
D34*
X345313000Y-53312500D03*
D33*
X346963000Y-53312500D03*
X343663000Y-53312500D03*
X346479726Y-54479226D03*
X345313000Y-51662500D03*
X344146274Y-52145774D03*
X346479726Y-52145774D03*
X344146274Y-54479226D03*
G04 #@! TD*
D35*
G04 #@! TO.C,C7*
X89200000Y-54480000D03*
X89200000Y-53520000D03*
G04 #@! TD*
G04 #@! TO.C,C3*
X90250000Y-46380000D03*
X90250000Y-45420000D03*
G04 #@! TD*
D29*
G04 #@! TO.C,D52*
X300200000Y-119237500D03*
X297400000Y-119237500D03*
G04 #@! TD*
D27*
G04 #@! TO.C,C29*
X224505000Y-46353500D03*
X224505000Y-47313500D03*
G04 #@! TD*
D32*
G04 #@! TO.C,C15*
X89120000Y-50000000D03*
X90080000Y-50000000D03*
G04 #@! TD*
D29*
G04 #@! TO.C,D32*
X224000000Y-100187500D03*
X221200000Y-100187500D03*
G04 #@! TD*
D33*
G04 #@! TO.C,H4*
X296566726Y-111266726D03*
X294233274Y-111266726D03*
X293750000Y-110100000D03*
X296566726Y-108933274D03*
D34*
X295400000Y-110100000D03*
D33*
X295400000Y-111750000D03*
X294233274Y-108933274D03*
X297050000Y-110100000D03*
X295400000Y-108450000D03*
G04 #@! TD*
D29*
G04 #@! TO.C,D15*
X158200000Y-120800000D03*
X155400000Y-120800000D03*
G04 #@! TD*
D27*
G04 #@! TO.C,C62*
X357855000Y-89216000D03*
X357855000Y-90176000D03*
G04 #@! TD*
D35*
G04 #@! TO.C,C74*
X350650000Y-79280000D03*
X350650000Y-78320000D03*
G04 #@! TD*
D27*
G04 #@! TO.C,C39*
X319755000Y-27303500D03*
X319755000Y-28263500D03*
G04 #@! TD*
G04 #@! TO.C,C65*
X88850000Y-89170000D03*
X88850000Y-90130000D03*
G04 #@! TD*
D29*
G04 #@! TO.C,D61*
X362112500Y-62087500D03*
X359312500Y-62087500D03*
G04 #@! TD*
D28*
G04 #@! TO.C,C12*
X104460000Y-84880000D03*
X102560000Y-84880000D03*
G04 #@! TD*
D35*
G04 #@! TO.C,C8*
X91850000Y-54480000D03*
X91850000Y-53520000D03*
G04 #@! TD*
D27*
G04 #@! TO.C,C25*
X300705000Y-27303500D03*
X300705000Y-28263500D03*
G04 #@! TD*
D36*
G04 #@! TO.C,C10*
X89000000Y-56700000D03*
X88040000Y-56700000D03*
G04 #@! TD*
D29*
G04 #@! TO.C,D8*
X128750000Y-81137500D03*
X125950000Y-81137500D03*
G04 #@! TD*
D27*
G04 #@! TO.C,C49*
X148305000Y-46353500D03*
X148305000Y-47313500D03*
G04 #@! TD*
D29*
G04 #@! TO.C,D62*
X362112500Y-81137500D03*
X359312500Y-81137500D03*
G04 #@! TD*
G04 #@! TO.C,D40*
X262100000Y-81137500D03*
X259300000Y-81137500D03*
G04 #@! TD*
D32*
G04 #@! TO.C,C14*
X89120000Y-48000000D03*
X90080000Y-48000000D03*
G04 #@! TD*
D29*
G04 #@! TO.C,D57*
X338300000Y-43037500D03*
X335500000Y-43037500D03*
G04 #@! TD*
D35*
G04 #@! TO.C,R5*
X122620000Y-86830000D03*
X122620000Y-85870000D03*
G04 #@! TD*
D27*
G04 #@! TO.C,C55*
X362617500Y-65403500D03*
X362617500Y-66363500D03*
G04 #@! TD*
D29*
G04 #@! TO.C,D68*
X381162500Y-100187500D03*
X378362500Y-100187500D03*
G04 #@! TD*
D27*
G04 #@! TO.C,C80*
X243555000Y-65403500D03*
X243555000Y-66363500D03*
G04 #@! TD*
G04 #@! TO.C,C60*
X129255000Y-65403500D03*
X129255000Y-66363500D03*
G04 #@! TD*
G04 #@! TO.C,C37*
X129255000Y-27308500D03*
X129255000Y-28268500D03*
G04 #@! TD*
D29*
G04 #@! TO.C,D63*
X357350000Y-104950000D03*
X354550000Y-104950000D03*
G04 #@! TD*
D27*
G04 #@! TO.C,C30*
X105442500Y-65403500D03*
X105442500Y-66363500D03*
G04 #@! TD*
D29*
G04 #@! TO.C,D35*
X243050000Y-62087500D03*
X240250000Y-62087500D03*
G04 #@! TD*
G04 #@! TO.C,D7*
X128750000Y-62087500D03*
X125950000Y-62087500D03*
G04 #@! TD*
D27*
G04 #@! TO.C,C38*
X224505000Y-84453500D03*
X224505000Y-85413500D03*
G04 #@! TD*
D29*
G04 #@! TO.C,D66*
X381162500Y-62087500D03*
X378362500Y-62087500D03*
G04 #@! TD*
D27*
G04 #@! TO.C,C45*
X148305000Y-27303500D03*
X148305000Y-28263500D03*
G04 #@! TD*
G04 #@! TO.C,R4*
X106025000Y-30020000D03*
X106025000Y-30980000D03*
G04 #@! TD*
D29*
G04 #@! TO.C,D36*
X243050000Y-81137500D03*
X240250000Y-81137500D03*
G04 #@! TD*
G04 #@! TO.C,D53*
X319250000Y-43037500D03*
X316450000Y-43037500D03*
G04 #@! TD*
D27*
G04 #@! TO.C,C63*
X224505000Y-27303500D03*
X224505000Y-28263500D03*
G04 #@! TD*
G04 #@! TO.C,C85*
X262605000Y-84453500D03*
X262605000Y-85413500D03*
G04 #@! TD*
D35*
G04 #@! TO.C,C67*
X261000000Y-106430000D03*
X261000000Y-105470000D03*
G04 #@! TD*
G04 #@! TO.C,C31*
X99400000Y-29970000D03*
X99400000Y-30930000D03*
G04 #@! TD*
D27*
G04 #@! TO.C,C27*
X243555000Y-84453500D03*
X243555000Y-85413500D03*
G04 #@! TD*
G04 #@! TO.C,C58*
X362617500Y-27303500D03*
X362617500Y-28263500D03*
G04 #@! TD*
G04 #@! TO.C,C22*
X91155000Y-108508500D03*
X91155000Y-109468500D03*
G04 #@! TD*
G04 #@! TO.C,C82*
X381667500Y-46353500D03*
X381667500Y-47313500D03*
G04 #@! TD*
G04 #@! TO.C,C81*
X224505000Y-65403500D03*
X224505000Y-66363500D03*
G04 #@! TD*
D32*
G04 #@! TO.C,C9*
X87120000Y-52000000D03*
X88080000Y-52000000D03*
G04 #@! TD*
D29*
G04 #@! TO.C,D42*
X257337500Y-119237500D03*
X254537500Y-119237500D03*
G04 #@! TD*
G04 #@! TO.C,D31*
X224000000Y-81137500D03*
X221200000Y-81137500D03*
G04 #@! TD*
D27*
G04 #@! TO.C,C34*
X362617500Y-46353500D03*
X362617500Y-47313500D03*
G04 #@! TD*
D32*
G04 #@! TO.C,C11*
X87120000Y-50000000D03*
X88080000Y-50000000D03*
G04 #@! TD*
D29*
G04 #@! TO.C,D17*
X166850000Y-62087500D03*
X164050000Y-62087500D03*
G04 #@! TD*
G04 #@! TO.C,D28*
X204950000Y-100187500D03*
X202150000Y-100187500D03*
G04 #@! TD*
D27*
G04 #@! TO.C,C79*
X381667500Y-65403500D03*
X381667500Y-66363500D03*
G04 #@! TD*
G04 #@! TO.C,C41*
X110205000Y-103503500D03*
X110205000Y-104463500D03*
G04 #@! TD*
D29*
G04 #@! TO.C,D38*
X262100000Y-43037500D03*
X259300000Y-43037500D03*
G04 #@! TD*
D27*
G04 #@! TO.C,C52*
X300705000Y-103503500D03*
X300705000Y-104463500D03*
G04 #@! TD*
D37*
G04 #@! TO.C,RESET*
X121170000Y-86470000D03*
X117070000Y-86470000D03*
X117070000Y-88070000D03*
X121170000Y-88070000D03*
G04 #@! TD*
D29*
G04 #@! TO.C,D5*
X109700000Y-119237500D03*
X106900000Y-119237500D03*
G04 #@! TD*
D27*
G04 #@! TO.C,C36*
X186405000Y-65403500D03*
X186405000Y-66363500D03*
G04 #@! TD*
G04 #@! TO.C,C75*
X300705000Y-84453500D03*
X300705000Y-85413500D03*
G04 #@! TD*
D29*
G04 #@! TO.C,D45*
X281150000Y-81137500D03*
X278350000Y-81137500D03*
G04 #@! TD*
D36*
G04 #@! TO.C,C48*
X112130000Y-26350000D03*
X111170000Y-26350000D03*
G04 #@! TD*
D27*
G04 #@! TO.C,C35*
X186405000Y-84453500D03*
X186405000Y-85413500D03*
G04 #@! TD*
D29*
G04 #@! TO.C,D51*
X300200000Y-100187500D03*
X297400000Y-100187500D03*
G04 #@! TD*
G04 #@! TO.C,D60*
X362112500Y-43037500D03*
X359312500Y-43037500D03*
G04 #@! TD*
D38*
G04 #@! TO.C,U2*
X93725000Y-42350000D03*
X94995000Y-42350000D03*
X96265000Y-42350000D03*
X97535000Y-42350000D03*
X97535000Y-49550000D03*
X96265000Y-49550000D03*
X94995000Y-49550000D03*
X93725000Y-49550000D03*
G04 #@! TD*
D29*
G04 #@! TO.C,D23*
X185900000Y-100187500D03*
X183100000Y-100187500D03*
G04 #@! TD*
D32*
G04 #@! TO.C,C16*
X89120000Y-52000000D03*
X90080000Y-52000000D03*
G04 #@! TD*
D35*
G04 #@! TO.C,C28*
X316775000Y-53105000D03*
X316775000Y-52145000D03*
G04 #@! TD*
D39*
G04 #@! TO.C,Y1*
X96199801Y-67939999D03*
X94860199Y-69640001D03*
X96199801Y-69640001D03*
X94860199Y-67939999D03*
G04 #@! TD*
D27*
G04 #@! TO.C,C73*
X134017500Y-103503500D03*
X134017500Y-104463500D03*
G04 #@! TD*
G04 #@! TO.C,C26*
X167355000Y-46353500D03*
X167355000Y-47313500D03*
G04 #@! TD*
D33*
G04 #@! TO.C,H5*
X220690000Y-62710000D03*
X219040000Y-61060000D03*
X217873274Y-63876726D03*
X217390000Y-62710000D03*
D34*
X219040000Y-62710000D03*
D33*
X220206726Y-63876726D03*
X220206726Y-61543274D03*
X217873274Y-61543274D03*
X219040000Y-64360000D03*
G04 #@! TD*
D29*
G04 #@! TO.C,D50*
X300200000Y-81137500D03*
X297400000Y-81137500D03*
G04 #@! TD*
D27*
G04 #@! TO.C,C57*
X262605000Y-27303500D03*
X262605000Y-28263500D03*
G04 #@! TD*
D29*
G04 #@! TO.C,D59*
X338300000Y-124000000D03*
X335500000Y-124000000D03*
G04 #@! TD*
G04 #@! TO.C,D21*
X185900000Y-62087500D03*
X183100000Y-62087500D03*
G04 #@! TD*
D27*
G04 #@! TO.C,C46*
X281655000Y-27303500D03*
X281655000Y-28263500D03*
G04 #@! TD*
D32*
G04 #@! TO.C,C44*
X153320000Y-102600000D03*
X154280000Y-102600000D03*
G04 #@! TD*
D29*
G04 #@! TO.C,D46*
X281150000Y-100187500D03*
X278350000Y-100187500D03*
G04 #@! TD*
D32*
G04 #@! TO.C,C17*
X87120000Y-54000000D03*
X88080000Y-54000000D03*
G04 #@! TD*
D27*
G04 #@! TO.C,C84*
X338805000Y-108266000D03*
X338805000Y-109226000D03*
G04 #@! TD*
G04 #@! TO.C,C42*
X300705000Y-46353500D03*
X300705000Y-47313500D03*
G04 #@! TD*
D33*
G04 #@! TO.C,H2*
X127372726Y-109070774D03*
X126206000Y-108587500D03*
X126206000Y-111887500D03*
X125039274Y-109070774D03*
D34*
X126206000Y-110237500D03*
D33*
X127372726Y-111404226D03*
X124556000Y-110237500D03*
X127856000Y-110237500D03*
X125039274Y-111404226D03*
G04 #@! TD*
D37*
G04 #@! TO.C,USB_BOOT*
X121170000Y-81000000D03*
X117070000Y-81000000D03*
X121170000Y-82600000D03*
X117070000Y-82600000D03*
G04 #@! TD*
D29*
G04 #@! TO.C,D54*
X327150000Y-62087500D03*
X324350000Y-62087500D03*
G04 #@! TD*
G04 #@! TO.C,D11*
X147800000Y-43037500D03*
X145000000Y-43037500D03*
G04 #@! TD*
D27*
G04 #@! TO.C,R8*
X93000000Y-53520000D03*
X93000000Y-54480000D03*
G04 #@! TD*
D29*
G04 #@! TO.C,D47*
X278768750Y-119237500D03*
X275968750Y-119237500D03*
G04 #@! TD*
G04 #@! TO.C,D65*
X382840000Y-43035000D03*
X380040000Y-43035000D03*
G04 #@! TD*
D32*
G04 #@! TO.C,C4*
X96070000Y-66650000D03*
X97030000Y-66650000D03*
G04 #@! TD*
D27*
G04 #@! TO.C,R7*
X94150000Y-53520000D03*
X94150000Y-54480000D03*
G04 #@! TD*
G04 #@! TO.C,R1*
X122620000Y-82200000D03*
X122620000Y-83160000D03*
G04 #@! TD*
D29*
G04 #@! TO.C,D22*
X185900000Y-81137500D03*
X183100000Y-81137500D03*
G04 #@! TD*
G04 #@! TO.C,D16*
X166850000Y-43037500D03*
X164050000Y-43037500D03*
G04 #@! TD*
G04 #@! TO.C,D14*
X147800000Y-100187500D03*
X145000000Y-100187500D03*
G04 #@! TD*
G04 #@! TO.C,D41*
X262100000Y-99550000D03*
X259300000Y-99550000D03*
G04 #@! TD*
D36*
G04 #@! TO.C,C20*
X108030000Y-45500000D03*
X107070000Y-45500000D03*
G04 #@! TD*
D27*
G04 #@! TO.C,C83*
X205455000Y-46353500D03*
X205455000Y-47313500D03*
G04 #@! TD*
G04 #@! TO.C,C69*
X186405000Y-46353500D03*
X186405000Y-47313500D03*
G04 #@! TD*
D29*
G04 #@! TO.C,D49*
X300200000Y-62087500D03*
X297400000Y-62087500D03*
G04 #@! TD*
G04 #@! TO.C,D20*
X185900000Y-43037500D03*
X183100000Y-43037500D03*
G04 #@! TD*
G04 #@! TO.C,D56*
X326393750Y-100187500D03*
X323593750Y-100187500D03*
G04 #@! TD*
G04 #@! TO.C,D64*
X357350000Y-124000000D03*
X354550000Y-124000000D03*
G04 #@! TD*
D27*
G04 #@! TO.C,C51*
X262605000Y-65403500D03*
X262605000Y-66363500D03*
G04 #@! TD*
G04 #@! TO.C,C59*
X107823750Y-84453500D03*
X107823750Y-85413500D03*
G04 #@! TD*
G04 #@! TO.C,C18*
X129250000Y-84440000D03*
X129250000Y-85400000D03*
G04 #@! TD*
D29*
G04 #@! TO.C,D9*
X130540000Y-100185000D03*
X127740000Y-100185000D03*
G04 #@! TD*
D27*
G04 #@! TO.C,R6*
X94550000Y-65770000D03*
X94550000Y-66730000D03*
G04 #@! TD*
D29*
G04 #@! TO.C,D25*
X204950000Y-43037500D03*
X202150000Y-43037500D03*
G04 #@! TD*
D27*
G04 #@! TO.C,C86*
X262605000Y-46353500D03*
X262605000Y-47313500D03*
G04 #@! TD*
G04 #@! TO.C,C53*
X381667500Y-27303500D03*
X381667500Y-28263500D03*
G04 #@! TD*
G04 #@! TO.C,C76*
X167355000Y-27303500D03*
X167355000Y-28263500D03*
G04 #@! TD*
D29*
G04 #@! TO.C,D48*
X300200000Y-43037500D03*
X297400000Y-43037500D03*
G04 #@! TD*
D27*
G04 #@! TO.C,C54*
X281655000Y-65403500D03*
X281655000Y-66363500D03*
G04 #@! TD*
G04 #@! TO.C,C5*
X98100000Y-68020000D03*
X98100000Y-68980000D03*
G04 #@! TD*
D36*
G04 #@! TO.C,R2*
X95290000Y-26250000D03*
X94330000Y-26250000D03*
G04 #@! TD*
D35*
G04 #@! TO.C,C6*
X90525000Y-54480000D03*
X90525000Y-53520000D03*
G04 #@! TD*
D29*
G04 #@! TO.C,D6*
X130415000Y-43035000D03*
X127615000Y-43035000D03*
G04 #@! TD*
G04 #@! TO.C,D43*
X281150000Y-43037500D03*
X278350000Y-43037500D03*
G04 #@! TD*
D27*
G04 #@! TO.C,C66*
X243555000Y-46353500D03*
X243555000Y-47313500D03*
G04 #@! TD*
G04 #@! TO.C,C61*
X281655000Y-84453500D03*
X281655000Y-85413500D03*
G04 #@! TD*
G04 #@! TO.C,C70*
X205455000Y-84453500D03*
X205455000Y-85413500D03*
G04 #@! TD*
G04 #@! TO.C,C47*
X357855000Y-108266000D03*
X357855000Y-109226000D03*
G04 #@! TD*
D29*
G04 #@! TO.C,D67*
X381162500Y-81137500D03*
X378362500Y-81137500D03*
G04 #@! TD*
G04 #@! TO.C,D13*
X147800000Y-81137500D03*
X145000000Y-81137500D03*
G04 #@! TD*
D27*
G04 #@! TO.C,C72*
X148305000Y-84453500D03*
X148305000Y-85413500D03*
G04 #@! TD*
G04 #@! TO.C,C19*
X279273750Y-103503500D03*
X279273750Y-104463500D03*
G04 #@! TD*
D29*
G04 #@! TO.C,D39*
X262100000Y-62087500D03*
X259300000Y-62087500D03*
G04 #@! TD*
D27*
G04 #@! TO.C,C71*
X167355000Y-65403500D03*
X167355000Y-66363500D03*
G04 #@! TD*
G04 #@! TO.C,C32*
X129255000Y-46353500D03*
X129255000Y-47313500D03*
G04 #@! TD*
D40*
G04 #@! TO.C,C2*
X104610000Y-42350000D03*
X104610000Y-40450000D03*
G04 #@! TD*
D29*
G04 #@! TO.C,D44*
X281150000Y-62087500D03*
X278350000Y-62087500D03*
G04 #@! TD*
D27*
G04 #@! TO.C,C68*
X281655000Y-46353500D03*
X281655000Y-47313500D03*
G04 #@! TD*
D41*
G04 #@! TO.C,U3*
X97637500Y-57600000D03*
X97637500Y-58000000D03*
X97637500Y-58400000D03*
X97637500Y-58800000D03*
X97637500Y-59200000D03*
X97637500Y-59600000D03*
X97637500Y-60000000D03*
X97637500Y-60400000D03*
X97637500Y-60800000D03*
X97637500Y-61200000D03*
X97637500Y-61600000D03*
X97637500Y-62000000D03*
X97637500Y-62400000D03*
X97637500Y-62800000D03*
D42*
X96800000Y-63637500D03*
X96400000Y-63637500D03*
X96000000Y-63637500D03*
X95600000Y-63637500D03*
X95200000Y-63637500D03*
X94800000Y-63637500D03*
X94400000Y-63637500D03*
X94000000Y-63637500D03*
X93600000Y-63637500D03*
X93200000Y-63637500D03*
X92800000Y-63637500D03*
X92400000Y-63637500D03*
X92000000Y-63637500D03*
X91600000Y-63637500D03*
D41*
X90762500Y-62800000D03*
X90762500Y-62400000D03*
X90762500Y-62000000D03*
X90762500Y-61600000D03*
X90762500Y-61200000D03*
X90762500Y-60800000D03*
X90762500Y-60400000D03*
X90762500Y-60000000D03*
X90762500Y-59600000D03*
X90762500Y-59200000D03*
X90762500Y-58800000D03*
X90762500Y-58400000D03*
X90762500Y-58000000D03*
X90762500Y-57600000D03*
D42*
X91600000Y-56762500D03*
X92000000Y-56762500D03*
X92400000Y-56762500D03*
X92800000Y-56762500D03*
X93200000Y-56762500D03*
X93600000Y-56762500D03*
X94000000Y-56762500D03*
X94400000Y-56762500D03*
X94800000Y-56762500D03*
X95200000Y-56762500D03*
X95600000Y-56762500D03*
X96000000Y-56762500D03*
X96400000Y-56762500D03*
X96800000Y-56762500D03*
D43*
X94200000Y-60200000D03*
G04 #@! TD*
D29*
G04 #@! TO.C,D26*
X204950000Y-62087500D03*
X202150000Y-62087500D03*
G04 #@! TD*
G04 #@! TO.C,D33*
X244150000Y-119100000D03*
X246950000Y-119100000D03*
G04 #@! TD*
D35*
G04 #@! TO.C,R3*
X89000000Y-46380000D03*
X89000000Y-45420000D03*
G04 #@! TD*
D27*
G04 #@! TO.C,C77*
X167355000Y-84453500D03*
X167355000Y-85413500D03*
G04 #@! TD*
D29*
G04 #@! TO.C,D10*
X133512500Y-119237500D03*
X130712500Y-119237500D03*
G04 #@! TD*
G04 #@! TO.C,D58*
X326393750Y-81137500D03*
X323593750Y-81137500D03*
G04 #@! TD*
D33*
G04 #@! TO.C,H1*
X120276774Y-51920774D03*
X122610226Y-54254226D03*
X119793500Y-53087500D03*
X120276774Y-54254226D03*
X121443500Y-54737500D03*
X122610226Y-51920774D03*
X121443500Y-51437500D03*
X123093500Y-53087500D03*
D34*
X121443500Y-53087500D03*
G04 #@! TD*
D27*
G04 #@! TO.C,C33*
X376905000Y-108266000D03*
X376905000Y-109226000D03*
G04 #@! TD*
G04 #@! TO.C,C64*
X148305000Y-65403500D03*
X148305000Y-66363500D03*
G04 #@! TD*
D29*
G04 #@! TO.C,D27*
X204950000Y-81137500D03*
X202150000Y-81137500D03*
G04 #@! TD*
G04 #@! TO.C,D2*
X104937500Y-62087500D03*
X102137500Y-62087500D03*
G04 #@! TD*
G04 #@! TO.C,D18*
X166850000Y-81137500D03*
X164050000Y-81137500D03*
G04 #@! TD*
G04 #@! TO.C,D1*
X111152500Y-43030000D03*
X108352500Y-43030000D03*
G04 #@! TD*
D27*
G04 #@! TO.C,C23*
X243555000Y-27303500D03*
X243555000Y-28263500D03*
G04 #@! TD*
D29*
G04 #@! TO.C,D29*
X224000000Y-43037500D03*
X221200000Y-43037500D03*
G04 #@! TD*
G04 #@! TO.C,D3*
X104937500Y-81137500D03*
X102137500Y-81137500D03*
G04 #@! TD*
D36*
G04 #@! TO.C,C24*
X87330000Y-75000000D03*
X86370000Y-75000000D03*
G04 #@! TD*
D29*
G04 #@! TO.C,D30*
X225590000Y-62060000D03*
X222790000Y-62060000D03*
G04 #@! TD*
D27*
G04 #@! TO.C,C50*
X205455000Y-65403500D03*
X205455000Y-66363500D03*
G04 #@! TD*
M02*
