G04 #@! TF.GenerationSoftware,KiCad,Pcbnew,6.0.2*
G04 #@! TF.CreationDate,2022-03-08T20:49:10-05:00*
G04 #@! TF.ProjectId,TbKB,54624b42-2e6b-4696-9361-645f70636258,0.0*
G04 #@! TF.SameCoordinates,Original*
G04 #@! TF.FileFunction,Profile,NP*
%FSLAX46Y46*%
G04 Gerber Fmt 4.6, Leading zero omitted, Abs format (unit mm)*
G04 Created by KiCad (PCBNEW 6.0.2) date 2022-03-08 20:49:10*
%MOMM*%
%LPD*%
G01*
G04 APERTURE LIST*
G04 #@! TA.AperFunction,Profile*
%ADD10C,0.100000*%
G04 #@! TD*
G04 #@! TA.AperFunction,Profile*
%ADD11C,0.050000*%
G04 #@! TD*
G04 APERTURE END LIST*
D10*
X86414214Y-126000000D02*
X395000000Y-126000000D01*
X82000000Y-73750000D02*
X82000000Y-98550000D01*
X84400000Y-38700000D02*
G75*
G03*
X82000000Y-38700000I-1200000J0D01*
G01*
X84400000Y-98550000D02*
X84400000Y-73750000D01*
X84400000Y-66500000D02*
X84400000Y-38700000D01*
X84400000Y-105000000D02*
G75*
G03*
X82000000Y-105000000I-1200000J0D01*
G01*
X31000001Y-31000001D02*
G75*
G03*
X29000001Y-33000001I-1J-1999999D01*
G01*
X84400000Y-105000000D02*
X84414214Y-124000000D01*
X80000000Y-111000000D02*
X31000001Y-110999999D01*
X395000000Y-126000000D02*
G75*
G03*
X397000000Y-124000000I1J1999999D01*
G01*
X82000000Y-109000000D02*
X82000000Y-105000000D01*
X395000000Y-22000000D02*
X86414214Y-22000000D01*
X81999999Y-33000001D02*
G75*
G03*
X84400000Y-32847658I1190091J232287D01*
G01*
X82000000Y-38700000D02*
X82000000Y-66500000D01*
X82000000Y-98550000D02*
G75*
G03*
X84400000Y-98550000I1200000J0D01*
G01*
X84414214Y-24000000D02*
X84400000Y-32847658D01*
X31000001Y-31000001D02*
X79999999Y-31000001D01*
X397000000Y-124000000D02*
X397000000Y-24000000D01*
X397000000Y-24000000D02*
G75*
G03*
X395000000Y-22000000I-1999999J1D01*
G01*
X80000000Y-111000000D02*
G75*
G03*
X82000000Y-109000000I1J1999999D01*
G01*
X84414214Y-124000000D02*
G75*
G03*
X86414214Y-126000000I1999999J-1D01*
G01*
X82000000Y-66500000D02*
G75*
G03*
X84400000Y-66500000I1200000J0D01*
G01*
X81999999Y-33000001D02*
G75*
G03*
X79999999Y-31000001I-2099269J-99269D01*
G01*
X84400000Y-73750000D02*
G75*
G03*
X82000000Y-73750000I-1200000J0D01*
G01*
X29000001Y-108999999D02*
X29000001Y-33000001D01*
X86414214Y-22000000D02*
G75*
G03*
X84414214Y-24000000I-8J-1999992D01*
G01*
X29000001Y-108999999D02*
G75*
G03*
X31000001Y-110999999I1999999J-1D01*
G01*
D11*
G04 #@! TO.C,D118*
X243950000Y-112557500D02*
X243950000Y-115557500D01*
X247350000Y-112557500D02*
X243950000Y-112557500D01*
X247350000Y-115557500D02*
X247350000Y-112557500D01*
X243950000Y-115557500D02*
X247350000Y-115557500D01*
G04 #@! TO.C,D130*
X207850118Y-27532500D02*
X207850118Y-30532500D01*
X211250118Y-30532500D02*
X211250118Y-27532500D01*
X211250118Y-27532500D02*
X207850118Y-27532500D01*
X207850118Y-30532500D02*
X211250118Y-30532500D01*
G04 #@! TO.C,D131*
X344600118Y-30532500D02*
X344600118Y-27532500D01*
X341200118Y-30532500D02*
X344600118Y-30532500D01*
X341200118Y-27532500D02*
X341200118Y-30532500D01*
X344600118Y-27532500D02*
X341200118Y-27532500D01*
G04 #@! TO.C,D78*
X387462618Y-87682500D02*
X387462618Y-84682500D01*
X384062618Y-87682500D02*
X387462618Y-87682500D01*
X384062618Y-84682500D02*
X384062618Y-87682500D01*
X387462618Y-84682500D02*
X384062618Y-84682500D01*
G04 #@! TO.C,D120*
X192200118Y-27532500D02*
X188800118Y-27532500D01*
X192200118Y-30532500D02*
X192200118Y-27532500D01*
X188800118Y-27532500D02*
X188800118Y-30532500D01*
X188800118Y-30532500D02*
X192200118Y-30532500D01*
G04 #@! TO.C,D125*
X303100118Y-68632500D02*
X306500118Y-68632500D01*
X306500118Y-68632500D02*
X306500118Y-65632500D01*
X303100118Y-65632500D02*
X303100118Y-68632500D01*
X306500118Y-65632500D02*
X303100118Y-65632500D01*
G04 #@! TO.C,D83*
X230300118Y-49582500D02*
X230300118Y-46582500D01*
X230300118Y-46582500D02*
X226900118Y-46582500D01*
X226900118Y-46582500D02*
X226900118Y-49582500D01*
X226900118Y-49582500D02*
X230300118Y-49582500D01*
G04 #@! TO.C,D137*
X363650118Y-89445000D02*
X360250118Y-89445000D01*
X363650118Y-92445000D02*
X363650118Y-89445000D01*
X360250118Y-92445000D02*
X363650118Y-92445000D01*
X360250118Y-89445000D02*
X360250118Y-92445000D01*
G04 #@! TO.C,D135*
X346480000Y-75950000D02*
X343080000Y-75950000D01*
X343080000Y-78950000D02*
X346480000Y-78950000D01*
X346480000Y-78950000D02*
X346480000Y-75950000D01*
X343080000Y-75950000D02*
X343080000Y-78950000D01*
G04 #@! TO.C,D121*
X322150118Y-27532500D02*
X322150118Y-30532500D01*
X322150118Y-30532500D02*
X325550118Y-30532500D01*
X325550118Y-27532500D02*
X322150118Y-27532500D01*
X325550118Y-30532500D02*
X325550118Y-27532500D01*
G04 #@! TO.C,D129*
X94568868Y-92687500D02*
X94568868Y-89687500D01*
X91168868Y-89687500D02*
X91168868Y-92687500D01*
X94568868Y-89687500D02*
X91168868Y-89687500D01*
X91168868Y-92687500D02*
X94568868Y-92687500D01*
G04 #@! TO.C,D111*
X303100118Y-27532500D02*
X303100118Y-30532500D01*
X306500118Y-30532500D02*
X306500118Y-27532500D01*
X306500118Y-27532500D02*
X303100118Y-27532500D01*
X303100118Y-30532500D02*
X306500118Y-30532500D01*
G04 #@! TO.C,D112*
X154100118Y-46582500D02*
X150700118Y-46582500D01*
X154100118Y-49582500D02*
X154100118Y-46582500D01*
X150700118Y-49582500D02*
X154100118Y-49582500D01*
X150700118Y-46582500D02*
X150700118Y-49582500D01*
G04 #@! TO.C,D76*
X365012618Y-68632500D02*
X368412618Y-68632500D01*
X368412618Y-68632500D02*
X368412618Y-65632500D01*
X365012618Y-65632500D02*
X365012618Y-68632500D01*
X368412618Y-65632500D02*
X365012618Y-65632500D01*
G04 #@! TO.C,D95*
X249350118Y-65632500D02*
X245950118Y-65632500D01*
X245950118Y-68632500D02*
X249350118Y-68632500D01*
X249350118Y-68632500D02*
X249350118Y-65632500D01*
X245950118Y-65632500D02*
X245950118Y-68632500D01*
G04 #@! TO.C,D104*
X135050118Y-68632500D02*
X135050118Y-65632500D01*
X131650118Y-68632500D02*
X135050118Y-68632500D01*
X135050118Y-65632500D02*
X131650118Y-65632500D01*
X131650118Y-65632500D02*
X131650118Y-68632500D01*
G04 #@! TO.C,D90*
X131650118Y-30537500D02*
X135050118Y-30537500D01*
X131650118Y-27537500D02*
X131650118Y-30537500D01*
X135050118Y-30537500D02*
X135050118Y-27537500D01*
X135050118Y-27537500D02*
X131650118Y-27537500D01*
G04 #@! TO.C,D94*
X111237618Y-68632500D02*
X111237618Y-65632500D01*
X107837618Y-68632500D02*
X111237618Y-68632500D01*
X111237618Y-65632500D02*
X107837618Y-65632500D01*
X107837618Y-65632500D02*
X107837618Y-68632500D01*
G04 #@! TO.C,D87*
X230300118Y-84682500D02*
X226900118Y-84682500D01*
X226900118Y-84682500D02*
X226900118Y-87682500D01*
X226900118Y-87682500D02*
X230300118Y-87682500D01*
X230300118Y-87682500D02*
X230300118Y-84682500D01*
G04 #@! TO.C,D100*
X150700118Y-27532500D02*
X150700118Y-30532500D01*
X154100118Y-27532500D02*
X150700118Y-27532500D01*
X154100118Y-30532500D02*
X154100118Y-27532500D01*
X150700118Y-30532500D02*
X154100118Y-30532500D01*
G04 #@! TO.C,D71*
X230300118Y-30532500D02*
X230300118Y-27532500D01*
X226900118Y-27532500D02*
X226900118Y-30532500D01*
X226900118Y-30532500D02*
X230300118Y-30532500D01*
X230300118Y-27532500D02*
X226900118Y-27532500D01*
G04 #@! TO.C,D107*
X268400118Y-87682500D02*
X268400118Y-84682500D01*
X268400118Y-84682500D02*
X265000118Y-84682500D01*
X265000118Y-84682500D02*
X265000118Y-87682500D01*
X265000118Y-87682500D02*
X268400118Y-87682500D01*
G04 #@! TO.C,D128*
X263750000Y-108657500D02*
X267150000Y-108657500D01*
X263750000Y-105657500D02*
X263750000Y-108657500D01*
X267150000Y-108657500D02*
X267150000Y-105657500D01*
X267150000Y-105657500D02*
X263750000Y-105657500D01*
G04 #@! TO.C,D70*
X96950118Y-30537500D02*
X96950118Y-27537500D01*
X93550118Y-30537500D02*
X96950118Y-30537500D01*
X96950118Y-27537500D02*
X93550118Y-27537500D01*
X93550118Y-27537500D02*
X93550118Y-30537500D01*
G04 #@! TO.C,D97*
X249350118Y-87682500D02*
X249350118Y-84682500D01*
X249350118Y-84682500D02*
X245950118Y-84682500D01*
X245950118Y-87682500D02*
X249350118Y-87682500D01*
X245950118Y-84682500D02*
X245950118Y-87682500D01*
G04 #@! TO.C,D72*
X365012618Y-30532500D02*
X368412618Y-30532500D01*
X368412618Y-27532500D02*
X365012618Y-27532500D01*
X365012618Y-27532500D02*
X365012618Y-30532500D01*
X368412618Y-30532500D02*
X368412618Y-27532500D01*
G04 #@! TO.C,D119*
X96950118Y-111737500D02*
X96950118Y-108737500D01*
X93550118Y-108737500D02*
X93550118Y-111737500D01*
X96950118Y-108737500D02*
X93550118Y-108737500D01*
X93550118Y-111737500D02*
X96950118Y-111737500D01*
G04 #@! TO.C,D84*
X387462618Y-46582500D02*
X384062618Y-46582500D01*
X384062618Y-46582500D02*
X384062618Y-49582500D01*
X387462618Y-49582500D02*
X387462618Y-46582500D01*
X384062618Y-49582500D02*
X387462618Y-49582500D01*
G04 #@! TO.C,D85*
X226900118Y-65632500D02*
X226900118Y-68632500D01*
X230300118Y-68632500D02*
X230300118Y-65632500D01*
X230300118Y-65632500D02*
X226900118Y-65632500D01*
X226900118Y-68632500D02*
X230300118Y-68632500D01*
G04 #@! TO.C,D74*
X368412618Y-49582500D02*
X368412618Y-46582500D01*
X368412618Y-46582500D02*
X365012618Y-46582500D01*
X365012618Y-49582500D02*
X368412618Y-49582500D01*
X365012618Y-46582500D02*
X365012618Y-49582500D01*
G04 #@! TO.C,D86*
X387462618Y-68632500D02*
X387462618Y-65632500D01*
X384062618Y-68632500D02*
X387462618Y-68632500D01*
X387462618Y-65632500D02*
X384062618Y-65632500D01*
X384062618Y-65632500D02*
X384062618Y-68632500D01*
G04 #@! TO.C,D88*
X112600118Y-103732500D02*
X112600118Y-106732500D01*
X112600118Y-106732500D02*
X116000118Y-106732500D01*
X116000118Y-103732500D02*
X112600118Y-103732500D01*
X116000118Y-106732500D02*
X116000118Y-103732500D01*
G04 #@! TO.C,D79*
X303100118Y-106732500D02*
X306500118Y-106732500D01*
X306500118Y-106732500D02*
X306500118Y-103732500D01*
X306500118Y-103732500D02*
X303100118Y-103732500D01*
X303100118Y-103732500D02*
X303100118Y-106732500D01*
G04 #@! TO.C,D134*
X192200118Y-65632500D02*
X188800118Y-65632500D01*
X188800118Y-65632500D02*
X188800118Y-68632500D01*
X192200118Y-68632500D02*
X192200118Y-65632500D01*
X188800118Y-68632500D02*
X192200118Y-68632500D01*
G04 #@! TO.C,D127*
X303100118Y-84682500D02*
X303100118Y-87682500D01*
X306500118Y-87682500D02*
X306500118Y-84682500D01*
X306500118Y-84682500D02*
X303100118Y-84682500D01*
X303100118Y-87682500D02*
X306500118Y-87682500D01*
G04 #@! TO.C,D80*
X112600118Y-27537500D02*
X112600118Y-30537500D01*
X112600118Y-30537500D02*
X116000118Y-30537500D01*
X116000118Y-30537500D02*
X116000118Y-27537500D01*
X116000118Y-27537500D02*
X112600118Y-27537500D01*
G04 #@! TO.C,D136*
X192200118Y-87682500D02*
X192200118Y-84682500D01*
X188800118Y-84682500D02*
X188800118Y-87682500D01*
X192200118Y-84682500D02*
X188800118Y-84682500D01*
X188800118Y-87682500D02*
X192200118Y-87682500D01*
G04 #@! TO.C,D133*
X319175000Y-55375000D02*
X322575000Y-55375000D01*
X322575000Y-52375000D02*
X319175000Y-52375000D01*
X322575000Y-55375000D02*
X322575000Y-52375000D01*
X319175000Y-52375000D02*
X319175000Y-55375000D01*
G04 #@! TO.C,D98*
X136412618Y-103732500D02*
X136412618Y-106732500D01*
X136412618Y-106732500D02*
X139812618Y-106732500D01*
X139812618Y-106732500D02*
X139812618Y-103732500D01*
X139812618Y-103732500D02*
X136412618Y-103732500D01*
G04 #@! TO.C,D122*
X169750118Y-49582500D02*
X173150118Y-49582500D01*
X169750118Y-46582500D02*
X169750118Y-49582500D01*
X173150118Y-46582500D02*
X169750118Y-46582500D01*
X173150118Y-49582500D02*
X173150118Y-46582500D01*
G04 #@! TO.C,D91*
X265000118Y-30532500D02*
X268400118Y-30532500D01*
X268400118Y-30532500D02*
X268400118Y-27532500D01*
X268400118Y-27532500D02*
X265000118Y-27532500D01*
X265000118Y-27532500D02*
X265000118Y-30532500D01*
G04 #@! TO.C,D101*
X287450118Y-30532500D02*
X287450118Y-27532500D01*
X284050118Y-30532500D02*
X287450118Y-30532500D01*
X284050118Y-27532500D02*
X284050118Y-30532500D01*
X287450118Y-27532500D02*
X284050118Y-27532500D01*
G04 #@! TO.C,D108*
X158150000Y-103732500D02*
X154750000Y-103732500D01*
X154750000Y-103732500D02*
X154750000Y-106732500D01*
X154750000Y-106732500D02*
X158150000Y-106732500D01*
X158150000Y-106732500D02*
X158150000Y-103732500D01*
G04 #@! TO.C,D89*
X344600118Y-111495000D02*
X344600118Y-108495000D01*
X344600118Y-108495000D02*
X341200118Y-108495000D01*
X341200118Y-111495000D02*
X344600118Y-111495000D01*
X341200118Y-108495000D02*
X341200118Y-111495000D01*
G04 #@! TO.C,D123*
X306500118Y-46582500D02*
X303100118Y-46582500D01*
X303100118Y-49582500D02*
X306500118Y-49582500D01*
X306500118Y-49582500D02*
X306500118Y-46582500D01*
X303100118Y-46582500D02*
X303100118Y-49582500D01*
G04 #@! TO.C,D92*
X107837618Y-46582500D02*
X107837618Y-49582500D01*
X111237618Y-46582500D02*
X107837618Y-46582500D01*
X107837618Y-49582500D02*
X111237618Y-49582500D01*
X111237618Y-49582500D02*
X111237618Y-46582500D01*
G04 #@! TO.C,D73*
X211250118Y-49582500D02*
X211250118Y-46582500D01*
X211250118Y-46582500D02*
X207850118Y-46582500D01*
X207850118Y-49582500D02*
X211250118Y-49582500D01*
X207850118Y-46582500D02*
X207850118Y-49582500D01*
G04 #@! TO.C,D132*
X188800118Y-49582500D02*
X192200118Y-49582500D01*
X192200118Y-46582500D02*
X188800118Y-46582500D01*
X188800118Y-46582500D02*
X188800118Y-49582500D01*
X192200118Y-49582500D02*
X192200118Y-46582500D01*
G04 #@! TO.C,D105*
X268400118Y-65632500D02*
X265000118Y-65632500D01*
X268400118Y-68632500D02*
X268400118Y-65632500D01*
X265000118Y-68632500D02*
X268400118Y-68632500D01*
X265000118Y-65632500D02*
X265000118Y-68632500D01*
G04 #@! TO.C,D96*
X113618868Y-87682500D02*
X113618868Y-84682500D01*
X113618868Y-84682500D02*
X110218868Y-84682500D01*
X110218868Y-84682500D02*
X110218868Y-87682500D01*
X110218868Y-87682500D02*
X113618868Y-87682500D01*
G04 #@! TO.C,D106*
X131650118Y-87682500D02*
X135050118Y-87682500D01*
X135050118Y-84682500D02*
X131650118Y-84682500D01*
X131650118Y-84682500D02*
X131650118Y-87682500D01*
X135050118Y-87682500D02*
X135050118Y-84682500D01*
G04 #@! TO.C,D103*
X265000118Y-46582500D02*
X265000118Y-49582500D01*
X268400118Y-46582500D02*
X265000118Y-46582500D01*
X265000118Y-49582500D02*
X268400118Y-49582500D01*
X268400118Y-49582500D02*
X268400118Y-46582500D01*
G04 #@! TO.C,D82*
X387462618Y-30532500D02*
X387462618Y-27532500D01*
X387462618Y-27532500D02*
X384062618Y-27532500D01*
X384062618Y-27532500D02*
X384062618Y-30532500D01*
X384062618Y-30532500D02*
X387462618Y-30532500D01*
G04 #@! TO.C,D110*
X173150118Y-30532500D02*
X173150118Y-27532500D01*
X169750118Y-27532500D02*
X169750118Y-30532500D01*
X169750118Y-30532500D02*
X173150118Y-30532500D01*
X173150118Y-27532500D02*
X169750118Y-27532500D01*
G04 #@! TO.C,D115*
X287450118Y-68632500D02*
X287450118Y-65632500D01*
X284050118Y-65632500D02*
X284050118Y-68632500D01*
X287450118Y-65632500D02*
X284050118Y-65632500D01*
X284050118Y-68632500D02*
X287450118Y-68632500D01*
G04 #@! TO.C,D93*
X249350118Y-46582500D02*
X245950118Y-46582500D01*
X245950118Y-49582500D02*
X249350118Y-49582500D01*
X249350118Y-49582500D02*
X249350118Y-46582500D01*
X245950118Y-46582500D02*
X245950118Y-49582500D01*
G04 #@! TO.C,D117*
X284050118Y-87682500D02*
X287450118Y-87682500D01*
X287450118Y-87682500D02*
X287450118Y-84682500D01*
X287450118Y-84682500D02*
X284050118Y-84682500D01*
X284050118Y-84682500D02*
X284050118Y-87682500D01*
G04 #@! TO.C,D77*
X207850118Y-87682500D02*
X211250118Y-87682500D01*
X207850118Y-84682500D02*
X207850118Y-87682500D01*
X211250118Y-84682500D02*
X207850118Y-84682500D01*
X211250118Y-87682500D02*
X211250118Y-84682500D01*
G04 #@! TO.C,D99*
X363650118Y-108495000D02*
X360250118Y-108495000D01*
X360250118Y-108495000D02*
X360250118Y-111495000D01*
X360250118Y-111495000D02*
X363650118Y-111495000D01*
X363650118Y-111495000D02*
X363650118Y-108495000D01*
G04 #@! TO.C,D116*
X150700118Y-84682500D02*
X150700118Y-87682500D01*
X154100118Y-87682500D02*
X154100118Y-84682500D01*
X154100118Y-84682500D02*
X150700118Y-84682500D01*
X150700118Y-87682500D02*
X154100118Y-87682500D01*
G04 #@! TO.C,D138*
X281668868Y-103732500D02*
X281668868Y-106732500D01*
X281668868Y-106732500D02*
X285068868Y-106732500D01*
X285068868Y-103732500D02*
X281668868Y-103732500D01*
X285068868Y-106732500D02*
X285068868Y-103732500D01*
G04 #@! TO.C,D124*
X169750118Y-65632500D02*
X169750118Y-68632500D01*
X173150118Y-65632500D02*
X169750118Y-65632500D01*
X169750118Y-68632500D02*
X173150118Y-68632500D01*
X173150118Y-68632500D02*
X173150118Y-65632500D01*
G04 #@! TO.C,D102*
X135050118Y-46582500D02*
X131650118Y-46582500D01*
X131650118Y-49582500D02*
X135050118Y-49582500D01*
X135050118Y-49582500D02*
X135050118Y-46582500D01*
X131650118Y-46582500D02*
X131650118Y-49582500D01*
G04 #@! TO.C,D113*
X284050118Y-46582500D02*
X284050118Y-49582500D01*
X287450118Y-46582500D02*
X284050118Y-46582500D01*
X284050118Y-49582500D02*
X287450118Y-49582500D01*
X287450118Y-49582500D02*
X287450118Y-46582500D01*
G04 #@! TO.C,D126*
X169750118Y-87682500D02*
X173150118Y-87682500D01*
X173150118Y-87682500D02*
X173150118Y-84682500D01*
X173150118Y-84682500D02*
X169750118Y-84682500D01*
X169750118Y-84682500D02*
X169750118Y-87682500D01*
G04 #@! TO.C,D109*
X382700118Y-111495000D02*
X382700118Y-108495000D01*
X382700118Y-108495000D02*
X379300118Y-108495000D01*
X379300118Y-111495000D02*
X382700118Y-111495000D01*
X379300118Y-108495000D02*
X379300118Y-111495000D01*
G04 #@! TO.C,D114*
X150700118Y-65632500D02*
X150700118Y-68632500D01*
X154100118Y-68632500D02*
X154100118Y-65632500D01*
X150700118Y-68632500D02*
X154100118Y-68632500D01*
X154100118Y-65632500D02*
X150700118Y-65632500D01*
G04 #@! TO.C,D81*
X249350118Y-27532500D02*
X245950118Y-27532500D01*
X245950118Y-30532500D02*
X249350118Y-30532500D01*
X245950118Y-27532500D02*
X245950118Y-30532500D01*
X249350118Y-30532500D02*
X249350118Y-27532500D01*
G04 #@! TO.C,D139*
X88787618Y-73637500D02*
X92187618Y-73637500D01*
X92187618Y-70637500D02*
X88787618Y-70637500D01*
X88787618Y-70637500D02*
X88787618Y-73637500D01*
X92187618Y-73637500D02*
X92187618Y-70637500D01*
G04 #@! TO.C,D75*
X207850118Y-68632500D02*
X211250118Y-68632500D01*
X211250118Y-65632500D02*
X207850118Y-65632500D01*
X211250118Y-68632500D02*
X211250118Y-65632500D01*
X207850118Y-65632500D02*
X207850118Y-68632500D01*
G04 #@! TD*
M02*
