G04 #@! TF.GenerationSoftware,KiCad,Pcbnew,6.0.2*
G04 #@! TF.CreationDate,2022-03-08T20:49:10-05:00*
G04 #@! TF.ProjectId,TbKB,54624b42-2e6b-4696-9361-645f70636258,0.0*
G04 #@! TF.SameCoordinates,Original*
G04 #@! TF.FileFunction,Soldermask,Top*
G04 #@! TF.FilePolarity,Negative*
%FSLAX46Y46*%
G04 Gerber Fmt 4.6, Leading zero omitted, Abs format (unit mm)*
G04 Created by KiCad (PCBNEW 6.0.2) date 2022-03-08 20:49:10*
%MOMM*%
%LPD*%
G01*
G04 APERTURE LIST*
%ADD10C,0.110000*%
%ADD11O,1.000000X1.600000*%
%ADD12O,1.000000X2.100000*%
%ADD13C,0.650000*%
%ADD14C,3.987800*%
%ADD15C,3.000000*%
%ADD16C,1.701800*%
%ADD17R,1.750000X1.750000*%
%ADD18C,1.750000*%
%ADD19C,2.700000*%
%ADD20C,3.048000*%
%ADD21C,3.050000*%
%ADD22C,4.000000*%
%ADD23C,0.700000*%
%ADD24C,4.400000*%
G04 APERTURE END LIST*
D10*
X319492857Y-111228571D02*
X318992857Y-110514285D01*
X318635714Y-111228571D02*
X318635714Y-109728571D01*
X319207142Y-109728571D01*
X319350000Y-109800000D01*
X319421428Y-109871428D01*
X319492857Y-110014285D01*
X319492857Y-110228571D01*
X319421428Y-110371428D01*
X319350000Y-110442857D01*
X319207142Y-110514285D01*
X318635714Y-110514285D01*
X320135714Y-111228571D02*
X320135714Y-109728571D01*
X320707142Y-109728571D01*
X320850000Y-109800000D01*
X320921428Y-109871428D01*
X320992857Y-110014285D01*
X320992857Y-110228571D01*
X320921428Y-110371428D01*
X320850000Y-110442857D01*
X320707142Y-110514285D01*
X320135714Y-110514285D01*
X321564285Y-109871428D02*
X321635714Y-109800000D01*
X321778571Y-109728571D01*
X322135714Y-109728571D01*
X322278571Y-109800000D01*
X322350000Y-109871428D01*
X322421428Y-110014285D01*
X322421428Y-110157142D01*
X322350000Y-110371428D01*
X321492857Y-111228571D01*
X322421428Y-111228571D01*
X323064285Y-111085714D02*
X323135714Y-111157142D01*
X323064285Y-111228571D01*
X322992857Y-111157142D01*
X323064285Y-111085714D01*
X323064285Y-111228571D01*
X324421428Y-109728571D02*
X324135714Y-109728571D01*
X323992857Y-109800000D01*
X323921428Y-109871428D01*
X323778571Y-110085714D01*
X323707142Y-110371428D01*
X323707142Y-110942857D01*
X323778571Y-111085714D01*
X323850000Y-111157142D01*
X323992857Y-111228571D01*
X324278571Y-111228571D01*
X324421428Y-111157142D01*
X324492857Y-111085714D01*
X324564285Y-110942857D01*
X324564285Y-110585714D01*
X324492857Y-110442857D01*
X324421428Y-110371428D01*
X324278571Y-110300000D01*
X323992857Y-110300000D01*
X323850000Y-110371428D01*
X323778571Y-110442857D01*
X323707142Y-110585714D01*
X325921428Y-109728571D02*
X325207142Y-109728571D01*
X325135714Y-110442857D01*
X325207142Y-110371428D01*
X325350000Y-110300000D01*
X325707142Y-110300000D01*
X325850000Y-110371428D01*
X325921428Y-110442857D01*
X325992857Y-110585714D01*
X325992857Y-110942857D01*
X325921428Y-111085714D01*
X325850000Y-111157142D01*
X325707142Y-111228571D01*
X325350000Y-111228571D01*
X325207142Y-111157142D01*
X325135714Y-111085714D01*
X326635714Y-110657142D02*
X327778571Y-110657142D01*
X328992857Y-110442857D02*
X328492857Y-110442857D01*
X328492857Y-111228571D02*
X328492857Y-109728571D01*
X329207142Y-109728571D01*
G04 #@! TO.C, *
G36*
X321010000Y-117000000D02*
G01*
X320810000Y-117000000D01*
X323020000Y-113000000D01*
X323280000Y-113000000D01*
X321010000Y-117000000D01*
G37*
G36*
X326440000Y-114090000D02*
G01*
X324875000Y-116910000D01*
X324875000Y-113400000D01*
X326440000Y-114090000D01*
G37*
G36*
X323225000Y-117000000D02*
G01*
X322975000Y-117000000D01*
X321725000Y-115000000D01*
X321975000Y-115000000D01*
X323225000Y-117000000D01*
G37*
G36*
X320975000Y-117000000D02*
G01*
X320570000Y-117000000D01*
X320570000Y-113000000D01*
X320975000Y-113000000D01*
X320975000Y-117000000D01*
G37*
G36*
X324725000Y-114000000D02*
G01*
X323225000Y-115000000D01*
X324725000Y-116000000D01*
X323225000Y-117000000D01*
X323225000Y-113400000D01*
X324725000Y-114000000D01*
G37*
G04 #@! TD*
D11*
G04 #@! TO.C,X1*
X108770000Y-23550000D03*
D12*
X108770000Y-27730000D03*
X100130000Y-27730000D03*
D11*
X100130000Y-23550000D03*
D13*
X101560000Y-27200000D03*
X107340000Y-27200000D03*
G04 #@! TD*
D14*
G04 #@! TO.C,K_47*
X111918750Y-91187500D03*
D15*
X115728750Y-93727500D03*
X109378750Y-96267500D03*
D16*
X116998750Y-91187500D03*
X106838750Y-91187500D03*
G04 #@! TD*
D15*
G04 #@! TO.C,K_57*
X302260000Y-96267500D03*
D16*
X309880000Y-91187500D03*
D15*
X308610000Y-93727500D03*
D14*
X304800000Y-91187500D03*
D16*
X299720000Y-91187500D03*
G04 #@! TD*
D15*
G04 #@! TO.C,K_4*
X168910000Y-39117500D03*
D14*
X171450000Y-34037500D03*
D16*
X166370000Y-34037500D03*
X176530000Y-34037500D03*
D15*
X175260000Y-36577500D03*
G04 #@! TD*
D16*
G04 #@! TO.C,K_12*
X318770000Y-34037500D03*
D15*
X327660000Y-36577500D03*
D16*
X328930000Y-34037500D03*
D15*
X321310000Y-39117500D03*
D14*
X323850000Y-34037500D03*
G04 #@! TD*
D16*
G04 #@! TO.C,K_39*
X271780000Y-72137500D03*
D15*
X264160000Y-77217500D03*
D14*
X266700000Y-72137500D03*
D15*
X270510000Y-74677500D03*
D16*
X261620000Y-72137500D03*
G04 #@! TD*
D15*
G04 #@! TO.C,K_55*
X270510000Y-93727500D03*
D16*
X261620000Y-91187500D03*
D15*
X264160000Y-96267500D03*
D16*
X271780000Y-91187500D03*
D14*
X266700000Y-91187500D03*
G04 #@! TD*
D16*
G04 #@! TO.C,K_5*
X195580000Y-34037500D03*
X185420000Y-34037500D03*
D15*
X187960000Y-39117500D03*
X194310000Y-36577500D03*
D14*
X190500000Y-34037500D03*
G04 #@! TD*
D16*
G04 #@! TO.C,K_16*
X104457500Y-53087500D03*
D15*
X106997500Y-58167500D03*
D14*
X109537500Y-53087500D03*
D15*
X113347500Y-55627500D03*
D16*
X114617500Y-53087500D03*
G04 #@! TD*
D15*
G04 #@! TO.C,K_26*
X302260000Y-58167500D03*
D16*
X299720000Y-53087500D03*
X309880000Y-53087500D03*
D14*
X304800000Y-53087500D03*
D15*
X308610000Y-55627500D03*
G04 #@! TD*
G04 #@! TO.C,K_63*
X141922500Y-112777500D03*
D16*
X133032500Y-110237500D03*
X143192500Y-110237500D03*
D14*
X138112500Y-110237500D03*
D15*
X135572500Y-115317500D03*
G04 #@! TD*
D16*
G04 #@! TO.C,K_66*
X244951250Y-110237500D03*
D14*
X250031250Y-110237500D03*
D15*
X246221250Y-107697500D03*
X252571250Y-105157500D03*
D16*
X255111250Y-110237500D03*
G04 #@! TD*
G04 #@! TO.C,K_28*
X338455000Y-53087500D03*
D15*
X335915000Y-48007500D03*
X329565000Y-50547500D03*
D16*
X328295000Y-53087500D03*
D14*
X333375000Y-53087500D03*
G04 #@! TD*
D16*
G04 #@! TO.C,K_8*
X242570000Y-34037500D03*
X252730000Y-34037500D03*
D15*
X251460000Y-36577500D03*
D14*
X247650000Y-34037500D03*
D15*
X245110000Y-39117500D03*
G04 #@! TD*
D16*
G04 #@! TO.C,K_64*
X167005000Y-110237500D03*
X156845000Y-110237500D03*
D14*
X161925000Y-110237500D03*
D15*
X159385000Y-115317500D03*
X165735000Y-112777500D03*
G04 #@! TD*
D16*
G04 #@! TO.C,K_59*
X325913750Y-91187500D03*
D15*
X334803750Y-93727500D03*
X328453750Y-96267500D03*
D14*
X330993750Y-91187500D03*
D16*
X336073750Y-91187500D03*
G04 #@! TD*
D14*
G04 #@! TO.C,K_65*
X228600000Y-110237500D03*
D16*
X233680000Y-110237500D03*
X223520000Y-110237500D03*
D15*
X231140000Y-105157500D03*
X224790000Y-107697500D03*
G04 #@! TD*
D14*
G04 #@! TO.C,K_10*
X285750000Y-34037500D03*
D15*
X283210000Y-39117500D03*
X289560000Y-36577500D03*
D16*
X280670000Y-34037500D03*
X290830000Y-34037500D03*
G04 #@! TD*
G04 #@! TO.C,K_20*
X185420000Y-53087500D03*
D15*
X187960000Y-58167500D03*
D14*
X190500000Y-53087500D03*
D15*
X194310000Y-55627500D03*
D16*
X195580000Y-53087500D03*
G04 #@! TD*
D15*
G04 #@! TO.C,K_38*
X245110000Y-77217500D03*
D14*
X247650000Y-72137500D03*
D15*
X251460000Y-74677500D03*
D16*
X252730000Y-72137500D03*
X242570000Y-72137500D03*
G04 #@! TD*
D15*
G04 #@! TO.C,K_24*
X270510000Y-55627500D03*
D14*
X266700000Y-53087500D03*
D16*
X261620000Y-53087500D03*
D15*
X264160000Y-58167500D03*
D16*
X271780000Y-53087500D03*
G04 #@! TD*
D15*
G04 #@! TO.C,K_69*
X308610000Y-112777500D03*
D14*
X304800000Y-110237500D03*
D16*
X299720000Y-110237500D03*
D15*
X302260000Y-115317500D03*
D16*
X309880000Y-110237500D03*
G04 #@! TD*
G04 #@! TO.C,K_27*
X325913750Y-53087500D03*
D14*
X330993750Y-53087500D03*
D15*
X334803750Y-55627500D03*
D16*
X336073750Y-53087500D03*
D15*
X328453750Y-58167500D03*
G04 #@! TD*
D14*
G04 #@! TO.C,K_1*
X114300000Y-34037500D03*
D16*
X119380000Y-34037500D03*
X109220000Y-34037500D03*
D15*
X111760000Y-39117500D03*
X118110000Y-36577500D03*
G04 #@! TD*
G04 #@! TO.C,K_53*
X232410000Y-93727500D03*
D16*
X233680000Y-91187500D03*
X223520000Y-91187500D03*
D14*
X228600000Y-91187500D03*
D15*
X226060000Y-96267500D03*
G04 #@! TD*
D17*
G04 #@! TO.C,RV1*
X76200000Y-34037500D03*
D18*
X72700000Y-34037500D03*
X76200000Y-107537500D03*
D19*
X70250000Y-103387500D03*
X78650000Y-102187500D03*
X70250000Y-38187500D03*
X78650000Y-39387500D03*
G04 #@! TD*
D15*
G04 #@! TO.C,K_space1*
X209391250Y-115317500D03*
D16*
X206851250Y-110237500D03*
D15*
X215741250Y-112777500D03*
D16*
X217011250Y-110237500D03*
D14*
X211931250Y-110237500D03*
G04 #@! TD*
D16*
G04 #@! TO.C,K_51*
X195580000Y-91187500D03*
D15*
X194310000Y-93727500D03*
D14*
X190500000Y-91187500D03*
D15*
X187960000Y-96267500D03*
D16*
X185420000Y-91187500D03*
G04 #@! TD*
G04 #@! TO.C,K_49*
X157480000Y-91187500D03*
X147320000Y-91187500D03*
D14*
X152400000Y-91187500D03*
D15*
X156210000Y-93727500D03*
X149860000Y-96267500D03*
G04 #@! TD*
D14*
G04 #@! TO.C,K_19*
X171450000Y-53087500D03*
D15*
X168910000Y-58167500D03*
D16*
X166370000Y-53087500D03*
D15*
X175260000Y-55627500D03*
D16*
X176530000Y-53087500D03*
G04 #@! TD*
D20*
G04 #@! TO.C,2U_STAB*
X321437000Y-46102500D03*
D14*
X345313000Y-61312500D03*
X321437000Y-61312500D03*
D20*
X345313000Y-46102500D03*
G04 #@! TD*
D16*
G04 #@! TO.C,K_43*
X336073750Y-72137500D03*
D14*
X330993750Y-72137500D03*
D15*
X328453750Y-77217500D03*
D16*
X325913750Y-72137500D03*
D15*
X334803750Y-74677500D03*
G04 #@! TD*
D21*
G04 #@! TO.C,U41*
X238093250Y-103237500D03*
D22*
X261969250Y-118477500D03*
X238093250Y-118477500D03*
D21*
X261969250Y-103237500D03*
G04 #@! TD*
D14*
G04 #@! TO.C,K_17*
X133350000Y-53087500D03*
D16*
X138430000Y-53087500D03*
D15*
X137160000Y-55627500D03*
X130810000Y-58167500D03*
D16*
X128270000Y-53087500D03*
G04 #@! TD*
G04 #@! TO.C,K_0*
X90170000Y-34037500D03*
X100330000Y-34037500D03*
D15*
X99060000Y-36577500D03*
X92710000Y-39117500D03*
D14*
X95250000Y-34037500D03*
G04 #@! TD*
D15*
G04 #@! TO.C,K_52*
X207010000Y-96267500D03*
D16*
X214630000Y-91187500D03*
D14*
X209550000Y-91187500D03*
D15*
X213360000Y-93727500D03*
D16*
X204470000Y-91187500D03*
G04 #@! TD*
G04 #@! TO.C,K_33*
X157480000Y-72137500D03*
D15*
X149860000Y-77217500D03*
D16*
X147320000Y-72137500D03*
D14*
X152400000Y-72137500D03*
D15*
X156210000Y-74677500D03*
G04 #@! TD*
G04 #@! TO.C,K_space1*
X194310000Y-112777500D03*
D16*
X185420000Y-110237500D03*
D15*
X187960000Y-115317500D03*
D14*
X190500000Y-110237500D03*
D16*
X195580000Y-110237500D03*
G04 #@! TD*
D17*
G04 #@! TO.C,RV2*
X57150000Y-34037500D03*
D18*
X53650000Y-34037500D03*
X57150000Y-107537500D03*
D19*
X59600000Y-102187500D03*
X51200000Y-38187500D03*
X51200000Y-103387500D03*
X59600000Y-39387500D03*
G04 #@! TD*
D16*
G04 #@! TO.C,K_45*
X371792500Y-72137500D03*
D14*
X366712500Y-72137500D03*
D15*
X364172500Y-77217500D03*
X370522500Y-74677500D03*
D16*
X361632500Y-72137500D03*
G04 #@! TD*
G04 #@! TO.C,K_62*
X109220000Y-110237500D03*
D15*
X118110000Y-112777500D03*
X111760000Y-115317500D03*
D16*
X119380000Y-110237500D03*
D14*
X114300000Y-110237500D03*
G04 #@! TD*
G04 #@! TO.C,K_21*
X209550000Y-53087500D03*
D15*
X213360000Y-55627500D03*
D16*
X214630000Y-53087500D03*
X204470000Y-53087500D03*
D15*
X207010000Y-58167500D03*
G04 #@! TD*
D16*
G04 #@! TO.C,K_7*
X233680000Y-34037500D03*
D14*
X228600000Y-34037500D03*
D16*
X223520000Y-34037500D03*
D15*
X232410000Y-36577500D03*
X226060000Y-39117500D03*
G04 #@! TD*
D14*
G04 #@! TO.C,K_22*
X228600000Y-53087500D03*
D15*
X232410000Y-55627500D03*
D16*
X223520000Y-53087500D03*
D15*
X226060000Y-58167500D03*
D16*
X233680000Y-53087500D03*
G04 #@! TD*
D15*
G04 #@! TO.C,K_3*
X156210000Y-36577500D03*
D16*
X147320000Y-34037500D03*
X157480000Y-34037500D03*
D14*
X152400000Y-34037500D03*
D15*
X149860000Y-39117500D03*
G04 #@! TD*
D16*
G04 #@! TO.C,K_48*
X128270000Y-91187500D03*
D15*
X130810000Y-96267500D03*
D16*
X138430000Y-91187500D03*
D15*
X137160000Y-93727500D03*
D14*
X133350000Y-91187500D03*
G04 #@! TD*
G04 #@! TO.C,K_34*
X171450000Y-72137500D03*
D16*
X166370000Y-72137500D03*
D15*
X175260000Y-74677500D03*
D16*
X176530000Y-72137500D03*
D15*
X168910000Y-77217500D03*
G04 #@! TD*
D14*
G04 #@! TO.C,K_11*
X304800000Y-34037500D03*
D16*
X299720000Y-34037500D03*
D15*
X302260000Y-39117500D03*
D16*
X309880000Y-34037500D03*
D15*
X308610000Y-36577500D03*
G04 #@! TD*
D16*
G04 #@! TO.C,K_54*
X242570000Y-91187500D03*
D14*
X247650000Y-91187500D03*
D15*
X251460000Y-93727500D03*
X245110000Y-96267500D03*
D16*
X252730000Y-91187500D03*
G04 #@! TD*
D15*
G04 #@! TO.C,K_71*
X359410000Y-120080000D03*
X365760000Y-117540000D03*
D14*
X361950000Y-115000000D03*
D16*
X356870000Y-115000000D03*
X367030000Y-115000000D03*
G04 #@! TD*
G04 #@! TO.C,K_31*
X104457500Y-72137500D03*
D15*
X113347500Y-74677500D03*
D16*
X114617500Y-72137500D03*
D14*
X109537500Y-72137500D03*
D15*
X106997500Y-77217500D03*
G04 #@! TD*
G04 #@! TO.C,K_58*
X324802500Y-88647500D03*
D14*
X328612500Y-91187500D03*
D15*
X331152500Y-86107500D03*
D16*
X323532500Y-91187500D03*
X333692500Y-91187500D03*
G04 #@! TD*
D14*
G04 #@! TO.C,K_35*
X190500000Y-72137500D03*
D16*
X185420000Y-72137500D03*
D15*
X194310000Y-74677500D03*
D16*
X195580000Y-72137500D03*
D15*
X187960000Y-77217500D03*
G04 #@! TD*
G04 #@! TO.C,K_15*
X383222500Y-39117500D03*
X389572500Y-36577500D03*
D14*
X385762500Y-34037500D03*
D16*
X390842500Y-34037500D03*
X380682500Y-34037500D03*
G04 #@! TD*
D15*
G04 #@! TO.C,K_18*
X156210000Y-55627500D03*
D14*
X152400000Y-53087500D03*
D16*
X147320000Y-53087500D03*
D15*
X149860000Y-58167500D03*
D16*
X157480000Y-53087500D03*
G04 #@! TD*
G04 #@! TO.C,K_61*
X367030000Y-95950000D03*
D15*
X359410000Y-101030000D03*
D16*
X356870000Y-95950000D03*
D15*
X365760000Y-98490000D03*
D14*
X361950000Y-95950000D03*
G04 #@! TD*
D16*
G04 #@! TO.C,K_60*
X380682500Y-91187500D03*
D14*
X385762500Y-91187500D03*
D15*
X383222500Y-96267500D03*
D16*
X390842500Y-91187500D03*
D15*
X389572500Y-93727500D03*
G04 #@! TD*
G04 #@! TO.C,K_70*
X346710000Y-117540000D03*
X340360000Y-120080000D03*
D16*
X337820000Y-115000000D03*
D14*
X342900000Y-115000000D03*
D16*
X347980000Y-115000000D03*
G04 #@! TD*
D17*
G04 #@! TO.C,RV3*
X38100000Y-34037500D03*
D18*
X34600000Y-34037500D03*
X38100000Y-107537500D03*
D19*
X40550000Y-102187500D03*
X32150000Y-38187500D03*
X32150000Y-103387500D03*
X40550000Y-39387500D03*
G04 #@! TD*
D14*
G04 #@! TO.C,K_14*
X366712500Y-34037500D03*
D16*
X371792500Y-34037500D03*
D15*
X370522500Y-36577500D03*
D16*
X361632500Y-34037500D03*
D15*
X364172500Y-39117500D03*
G04 #@! TD*
D16*
G04 #@! TO.C,K_36*
X214630000Y-72137500D03*
D14*
X209550000Y-72137500D03*
D15*
X213360000Y-74677500D03*
X207010000Y-77217500D03*
D16*
X204470000Y-72137500D03*
G04 #@! TD*
D15*
G04 #@! TO.C,K_50*
X168910000Y-96267500D03*
D14*
X171450000Y-91187500D03*
D15*
X175260000Y-93727500D03*
D16*
X176530000Y-91187500D03*
X166370000Y-91187500D03*
G04 #@! TD*
G04 #@! TO.C,K_46*
X390842500Y-72137500D03*
D15*
X389572500Y-74677500D03*
D16*
X380682500Y-72137500D03*
D15*
X383222500Y-77217500D03*
D14*
X385762500Y-72137500D03*
G04 #@! TD*
D16*
G04 #@! TO.C,K_30*
X390842500Y-53087500D03*
D15*
X383222500Y-58167500D03*
D14*
X385762500Y-53087500D03*
D15*
X389572500Y-55627500D03*
D16*
X380682500Y-53087500D03*
G04 #@! TD*
G04 #@! TO.C,K_42*
X318770000Y-72137500D03*
D15*
X320040000Y-69597500D03*
D16*
X328930000Y-72137500D03*
D14*
X323850000Y-72137500D03*
D15*
X326390000Y-67057500D03*
G04 #@! TD*
D16*
G04 #@! TO.C,K_9*
X271780000Y-34037500D03*
D14*
X266700000Y-34037500D03*
D15*
X264160000Y-39117500D03*
X270510000Y-36577500D03*
D16*
X261620000Y-34037500D03*
G04 #@! TD*
D15*
G04 #@! TO.C,K_2*
X137160000Y-36577500D03*
D16*
X128270000Y-34037500D03*
D15*
X130810000Y-39117500D03*
D14*
X133350000Y-34037500D03*
D16*
X138430000Y-34037500D03*
G04 #@! TD*
D15*
G04 #@! TO.C,K_40*
X283210000Y-77217500D03*
D16*
X290830000Y-72137500D03*
X280670000Y-72137500D03*
D15*
X289560000Y-74677500D03*
D14*
X285750000Y-72137500D03*
G04 #@! TD*
D15*
G04 #@! TO.C,K_41*
X302260000Y-77217500D03*
D16*
X299720000Y-72137500D03*
D14*
X304800000Y-72137500D03*
D15*
X308610000Y-74677500D03*
D16*
X309880000Y-72137500D03*
G04 #@! TD*
G04 #@! TO.C,K_6*
X204470000Y-34037500D03*
D15*
X213360000Y-36577500D03*
D14*
X209550000Y-34037500D03*
D16*
X214630000Y-34037500D03*
D15*
X207010000Y-39117500D03*
G04 #@! TD*
D16*
G04 #@! TO.C,K_56*
X290830000Y-91187500D03*
D15*
X283210000Y-96267500D03*
X289560000Y-93727500D03*
D16*
X280670000Y-91187500D03*
D14*
X285750000Y-91187500D03*
G04 #@! TD*
D16*
G04 #@! TO.C,K_13*
X337820000Y-34037500D03*
D15*
X346710000Y-36577500D03*
X340360000Y-39117500D03*
D16*
X347980000Y-34037500D03*
D14*
X342900000Y-34037500D03*
G04 #@! TD*
D15*
G04 #@! TO.C,K_72*
X378460000Y-120080000D03*
D14*
X381000000Y-115000000D03*
D16*
X375920000Y-115000000D03*
D15*
X384810000Y-117540000D03*
D16*
X386080000Y-115000000D03*
G04 #@! TD*
D15*
G04 #@! TO.C,K_space1*
X196215000Y-107697500D03*
D14*
X200025000Y-110237500D03*
D16*
X205105000Y-110237500D03*
X194945000Y-110237500D03*
D15*
X202565000Y-105157500D03*
G04 #@! TD*
G04 #@! TO.C,K_32*
X130810000Y-77217500D03*
X137160000Y-74677500D03*
D16*
X128270000Y-72137500D03*
D14*
X133350000Y-72137500D03*
D16*
X138430000Y-72137500D03*
G04 #@! TD*
D14*
G04 #@! TO.C,6.25U SPACE STAB*
X161931250Y-118462500D03*
X261931250Y-118462500D03*
D20*
X161931250Y-103252500D03*
X261931250Y-103252500D03*
G04 #@! TD*
D16*
G04 #@! TO.C,K_44*
X337820000Y-72137500D03*
D14*
X342900000Y-72137500D03*
D15*
X345440000Y-67057500D03*
D16*
X347980000Y-72137500D03*
D15*
X339090000Y-69597500D03*
G04 #@! TD*
D16*
G04 #@! TO.C,K_29*
X361632500Y-53087500D03*
D14*
X366712500Y-53087500D03*
D16*
X371792500Y-53087500D03*
D15*
X364172500Y-58167500D03*
X370522500Y-55627500D03*
G04 #@! TD*
G04 #@! TO.C,K_37*
X226060000Y-77217500D03*
D16*
X233680000Y-72137500D03*
X223520000Y-72137500D03*
D14*
X228600000Y-72137500D03*
D15*
X232410000Y-74677500D03*
G04 #@! TD*
D16*
G04 #@! TO.C,K_25*
X280670000Y-53087500D03*
X290830000Y-53087500D03*
D15*
X289560000Y-55627500D03*
X283210000Y-58167500D03*
D14*
X285750000Y-53087500D03*
G04 #@! TD*
G04 #@! TO.C,K_23*
X247650000Y-53087500D03*
D16*
X252730000Y-53087500D03*
D15*
X251460000Y-55627500D03*
D16*
X242570000Y-53087500D03*
D15*
X245110000Y-58167500D03*
G04 #@! TD*
D14*
G04 #@! TO.C,K_68*
X283368750Y-110237500D03*
D16*
X288448750Y-110237500D03*
X278288750Y-110237500D03*
D15*
X280828750Y-115317500D03*
X287178750Y-112777500D03*
G04 #@! TD*
D14*
G04 #@! TO.C,3U SPACE STAB*
X180975000Y-118462500D03*
X219075000Y-118462500D03*
D20*
X180975000Y-103252500D03*
X219075000Y-103252500D03*
G04 #@! TD*
D16*
G04 #@! TO.C,K_67*
X264636250Y-110237500D03*
D15*
X263366250Y-112777500D03*
X257016250Y-115317500D03*
D14*
X259556250Y-110237500D03*
D16*
X254476250Y-110237500D03*
G04 #@! TD*
D23*
G04 #@! TO.C,H3*
X345313000Y-54962500D03*
D24*
X345313000Y-53312500D03*
D23*
X346963000Y-53312500D03*
X343663000Y-53312500D03*
X346479726Y-54479226D03*
X345313000Y-51662500D03*
X344146274Y-52145774D03*
X346479726Y-52145774D03*
X344146274Y-54479226D03*
G04 #@! TD*
G04 #@! TO.C,H4*
X296566726Y-111266726D03*
X294233274Y-111266726D03*
X293750000Y-110100000D03*
X296566726Y-108933274D03*
D24*
X295400000Y-110100000D03*
D23*
X295400000Y-111750000D03*
X294233274Y-108933274D03*
X297050000Y-110100000D03*
X295400000Y-108450000D03*
G04 #@! TD*
G04 #@! TO.C,H5*
X220690000Y-62710000D03*
X219040000Y-61060000D03*
X217873274Y-63876726D03*
X217390000Y-62710000D03*
D24*
X219040000Y-62710000D03*
D23*
X220206726Y-63876726D03*
X220206726Y-61543274D03*
X217873274Y-61543274D03*
X219040000Y-64360000D03*
G04 #@! TD*
G04 #@! TO.C,H2*
X127372726Y-109070774D03*
X126206000Y-108587500D03*
X126206000Y-111887500D03*
X125039274Y-109070774D03*
D24*
X126206000Y-110237500D03*
D23*
X127372726Y-111404226D03*
X124556000Y-110237500D03*
X127856000Y-110237500D03*
X125039274Y-111404226D03*
G04 #@! TD*
G04 #@! TO.C,H1*
X120276774Y-51920774D03*
X122610226Y-54254226D03*
X119793500Y-53087500D03*
X120276774Y-54254226D03*
X121443500Y-54737500D03*
X122610226Y-51920774D03*
X121443500Y-51437500D03*
X123093500Y-53087500D03*
D24*
X121443500Y-53087500D03*
G04 #@! TD*
M02*
