G04 #@! TF.GenerationSoftware,KiCad,Pcbnew,6.0.2*
G04 #@! TF.CreationDate,2022-03-08T20:49:10-05:00*
G04 #@! TF.ProjectId,TbKB,54624b42-2e6b-4696-9361-645f70636258,0.0*
G04 #@! TF.SameCoordinates,Original*
G04 #@! TF.FileFunction,Legend,Top*
G04 #@! TF.FilePolarity,Positive*
%FSLAX46Y46*%
G04 Gerber Fmt 4.6, Leading zero omitted, Abs format (unit mm)*
G04 Created by KiCad (PCBNEW 6.0.2) date 2022-03-08 20:49:10*
%MOMM*%
%LPD*%
G01*
G04 APERTURE LIST*
%ADD10C,0.150000*%
%ADD11C,0.120000*%
G04 APERTURE END LIST*
D10*
G04 #@! TO.C,K_66*
X248436011Y-116689880D02*
X248436011Y-115689880D01*
X249007440Y-116689880D02*
X248578869Y-116118452D01*
X249007440Y-115689880D02*
X248436011Y-116261309D01*
X249197916Y-116785119D02*
X249959821Y-116785119D01*
X250626488Y-115689880D02*
X250436011Y-115689880D01*
X250340773Y-115737500D01*
X250293154Y-115785119D01*
X250197916Y-115927976D01*
X250150297Y-116118452D01*
X250150297Y-116499404D01*
X250197916Y-116594642D01*
X250245535Y-116642261D01*
X250340773Y-116689880D01*
X250531250Y-116689880D01*
X250626488Y-116642261D01*
X250674107Y-116594642D01*
X250721726Y-116499404D01*
X250721726Y-116261309D01*
X250674107Y-116166071D01*
X250626488Y-116118452D01*
X250531250Y-116070833D01*
X250340773Y-116070833D01*
X250245535Y-116118452D01*
X250197916Y-116166071D01*
X250150297Y-116261309D01*
X251578869Y-115689880D02*
X251388392Y-115689880D01*
X251293154Y-115737500D01*
X251245535Y-115785119D01*
X251150297Y-115927976D01*
X251102678Y-116118452D01*
X251102678Y-116499404D01*
X251150297Y-116594642D01*
X251197916Y-116642261D01*
X251293154Y-116689880D01*
X251483630Y-116689880D01*
X251578869Y-116642261D01*
X251626488Y-116594642D01*
X251674107Y-116499404D01*
X251674107Y-116261309D01*
X251626488Y-116166071D01*
X251578869Y-116118452D01*
X251483630Y-116070833D01*
X251293154Y-116070833D01*
X251197916Y-116118452D01*
X251150297Y-116166071D01*
X251102678Y-116261309D01*
G04 #@! TO.C,K_65*
X227004761Y-116689880D02*
X227004761Y-115689880D01*
X227576190Y-116689880D02*
X227147619Y-116118452D01*
X227576190Y-115689880D02*
X227004761Y-116261309D01*
X227766666Y-116785119D02*
X228528571Y-116785119D01*
X229195238Y-115689880D02*
X229004761Y-115689880D01*
X228909523Y-115737500D01*
X228861904Y-115785119D01*
X228766666Y-115927976D01*
X228719047Y-116118452D01*
X228719047Y-116499404D01*
X228766666Y-116594642D01*
X228814285Y-116642261D01*
X228909523Y-116689880D01*
X229100000Y-116689880D01*
X229195238Y-116642261D01*
X229242857Y-116594642D01*
X229290476Y-116499404D01*
X229290476Y-116261309D01*
X229242857Y-116166071D01*
X229195238Y-116118452D01*
X229100000Y-116070833D01*
X228909523Y-116070833D01*
X228814285Y-116118452D01*
X228766666Y-116166071D01*
X228719047Y-116261309D01*
X230195238Y-115689880D02*
X229719047Y-115689880D01*
X229671428Y-116166071D01*
X229719047Y-116118452D01*
X229814285Y-116070833D01*
X230052380Y-116070833D01*
X230147619Y-116118452D01*
X230195238Y-116166071D01*
X230242857Y-116261309D01*
X230242857Y-116499404D01*
X230195238Y-116594642D01*
X230147619Y-116642261D01*
X230052380Y-116689880D01*
X229814285Y-116689880D01*
X229719047Y-116642261D01*
X229671428Y-116594642D01*
G04 #@! TO.C,RV1*
X80652380Y-71382738D02*
X80176190Y-71716071D01*
X80652380Y-71954166D02*
X79652380Y-71954166D01*
X79652380Y-71573214D01*
X79700000Y-71477976D01*
X79747619Y-71430357D01*
X79842857Y-71382738D01*
X79985714Y-71382738D01*
X80080952Y-71430357D01*
X80128571Y-71477976D01*
X80176190Y-71573214D01*
X80176190Y-71954166D01*
X79652380Y-71097023D02*
X80652380Y-70763690D01*
X79652380Y-70430357D01*
X80652380Y-69573214D02*
X80652380Y-70144642D01*
X80652380Y-69858928D02*
X79652380Y-69858928D01*
X79795238Y-69954166D01*
X79890476Y-70049404D01*
X79938095Y-70144642D01*
G04 #@! TO.C,K_space1*
X208645535Y-104689880D02*
X208645535Y-103689880D01*
X209216964Y-104689880D02*
X208788392Y-104118452D01*
X209216964Y-103689880D02*
X208645535Y-104261309D01*
X209407440Y-104785119D02*
X210169345Y-104785119D01*
X210359821Y-104642261D02*
X210455059Y-104689880D01*
X210645535Y-104689880D01*
X210740773Y-104642261D01*
X210788392Y-104547023D01*
X210788392Y-104499404D01*
X210740773Y-104404166D01*
X210645535Y-104356547D01*
X210502678Y-104356547D01*
X210407440Y-104308928D01*
X210359821Y-104213690D01*
X210359821Y-104166071D01*
X210407440Y-104070833D01*
X210502678Y-104023214D01*
X210645535Y-104023214D01*
X210740773Y-104070833D01*
X211216964Y-104023214D02*
X211216964Y-105023214D01*
X211216964Y-104070833D02*
X211312202Y-104023214D01*
X211502678Y-104023214D01*
X211597916Y-104070833D01*
X211645535Y-104118452D01*
X211693154Y-104213690D01*
X211693154Y-104499404D01*
X211645535Y-104594642D01*
X211597916Y-104642261D01*
X211502678Y-104689880D01*
X211312202Y-104689880D01*
X211216964Y-104642261D01*
X212550297Y-104689880D02*
X212550297Y-104166071D01*
X212502678Y-104070833D01*
X212407440Y-104023214D01*
X212216964Y-104023214D01*
X212121726Y-104070833D01*
X212550297Y-104642261D02*
X212455059Y-104689880D01*
X212216964Y-104689880D01*
X212121726Y-104642261D01*
X212074107Y-104547023D01*
X212074107Y-104451785D01*
X212121726Y-104356547D01*
X212216964Y-104308928D01*
X212455059Y-104308928D01*
X212550297Y-104261309D01*
X213455059Y-104642261D02*
X213359821Y-104689880D01*
X213169345Y-104689880D01*
X213074107Y-104642261D01*
X213026488Y-104594642D01*
X212978869Y-104499404D01*
X212978869Y-104213690D01*
X213026488Y-104118452D01*
X213074107Y-104070833D01*
X213169345Y-104023214D01*
X213359821Y-104023214D01*
X213455059Y-104070833D01*
X214264583Y-104642261D02*
X214169345Y-104689880D01*
X213978869Y-104689880D01*
X213883630Y-104642261D01*
X213836011Y-104547023D01*
X213836011Y-104166071D01*
X213883630Y-104070833D01*
X213978869Y-104023214D01*
X214169345Y-104023214D01*
X214264583Y-104070833D01*
X214312202Y-104166071D01*
X214312202Y-104261309D01*
X213836011Y-104356547D01*
X215264583Y-104689880D02*
X214693154Y-104689880D01*
X214978869Y-104689880D02*
X214978869Y-103689880D01*
X214883630Y-103832738D01*
X214788392Y-103927976D01*
X214693154Y-103975595D01*
X187214285Y-104689880D02*
X187214285Y-103689880D01*
X187785714Y-104689880D02*
X187357142Y-104118452D01*
X187785714Y-103689880D02*
X187214285Y-104261309D01*
X187976190Y-104785119D02*
X188738095Y-104785119D01*
X188928571Y-104642261D02*
X189023809Y-104689880D01*
X189214285Y-104689880D01*
X189309523Y-104642261D01*
X189357142Y-104547023D01*
X189357142Y-104499404D01*
X189309523Y-104404166D01*
X189214285Y-104356547D01*
X189071428Y-104356547D01*
X188976190Y-104308928D01*
X188928571Y-104213690D01*
X188928571Y-104166071D01*
X188976190Y-104070833D01*
X189071428Y-104023214D01*
X189214285Y-104023214D01*
X189309523Y-104070833D01*
X189785714Y-104023214D02*
X189785714Y-105023214D01*
X189785714Y-104070833D02*
X189880952Y-104023214D01*
X190071428Y-104023214D01*
X190166666Y-104070833D01*
X190214285Y-104118452D01*
X190261904Y-104213690D01*
X190261904Y-104499404D01*
X190214285Y-104594642D01*
X190166666Y-104642261D01*
X190071428Y-104689880D01*
X189880952Y-104689880D01*
X189785714Y-104642261D01*
X191119047Y-104689880D02*
X191119047Y-104166071D01*
X191071428Y-104070833D01*
X190976190Y-104023214D01*
X190785714Y-104023214D01*
X190690476Y-104070833D01*
X191119047Y-104642261D02*
X191023809Y-104689880D01*
X190785714Y-104689880D01*
X190690476Y-104642261D01*
X190642857Y-104547023D01*
X190642857Y-104451785D01*
X190690476Y-104356547D01*
X190785714Y-104308928D01*
X191023809Y-104308928D01*
X191119047Y-104261309D01*
X192023809Y-104642261D02*
X191928571Y-104689880D01*
X191738095Y-104689880D01*
X191642857Y-104642261D01*
X191595238Y-104594642D01*
X191547619Y-104499404D01*
X191547619Y-104213690D01*
X191595238Y-104118452D01*
X191642857Y-104070833D01*
X191738095Y-104023214D01*
X191928571Y-104023214D01*
X192023809Y-104070833D01*
X192833333Y-104642261D02*
X192738095Y-104689880D01*
X192547619Y-104689880D01*
X192452380Y-104642261D01*
X192404761Y-104547023D01*
X192404761Y-104166071D01*
X192452380Y-104070833D01*
X192547619Y-104023214D01*
X192738095Y-104023214D01*
X192833333Y-104070833D01*
X192880952Y-104166071D01*
X192880952Y-104261309D01*
X192404761Y-104356547D01*
X193833333Y-104689880D02*
X193261904Y-104689880D01*
X193547619Y-104689880D02*
X193547619Y-103689880D01*
X193452380Y-103832738D01*
X193357142Y-103927976D01*
X193261904Y-103975595D01*
G04 #@! TO.C,RV2*
X61602380Y-71382738D02*
X61126190Y-71716071D01*
X61602380Y-71954166D02*
X60602380Y-71954166D01*
X60602380Y-71573214D01*
X60650000Y-71477976D01*
X60697619Y-71430357D01*
X60792857Y-71382738D01*
X60935714Y-71382738D01*
X61030952Y-71430357D01*
X61078571Y-71477976D01*
X61126190Y-71573214D01*
X61126190Y-71954166D01*
X60602380Y-71097023D02*
X61602380Y-70763690D01*
X60602380Y-70430357D01*
X60697619Y-70144642D02*
X60650000Y-70097023D01*
X60602380Y-70001785D01*
X60602380Y-69763690D01*
X60650000Y-69668452D01*
X60697619Y-69620833D01*
X60792857Y-69573214D01*
X60888095Y-69573214D01*
X61030952Y-69620833D01*
X61602380Y-70192261D01*
X61602380Y-69573214D01*
G04 #@! TO.C, *
G04 #@! TO.C,RV3*
X42552380Y-71382738D02*
X42076190Y-71716071D01*
X42552380Y-71954166D02*
X41552380Y-71954166D01*
X41552380Y-71573214D01*
X41600000Y-71477976D01*
X41647619Y-71430357D01*
X41742857Y-71382738D01*
X41885714Y-71382738D01*
X41980952Y-71430357D01*
X42028571Y-71477976D01*
X42076190Y-71573214D01*
X42076190Y-71954166D01*
X41552380Y-71097023D02*
X42552380Y-70763690D01*
X41552380Y-70430357D01*
X41552380Y-70192261D02*
X41552380Y-69573214D01*
X41933333Y-69906547D01*
X41933333Y-69763690D01*
X41980952Y-69668452D01*
X42028571Y-69620833D01*
X42123809Y-69573214D01*
X42361904Y-69573214D01*
X42457142Y-69620833D01*
X42504761Y-69668452D01*
X42552380Y-69763690D01*
X42552380Y-70049404D01*
X42504761Y-70144642D01*
X42457142Y-70192261D01*
G04 #@! TO.C,K_space1*
X196739285Y-116689880D02*
X196739285Y-115689880D01*
X197310714Y-116689880D02*
X196882142Y-116118452D01*
X197310714Y-115689880D02*
X196739285Y-116261309D01*
X197501190Y-116785119D02*
X198263095Y-116785119D01*
X198453571Y-116642261D02*
X198548809Y-116689880D01*
X198739285Y-116689880D01*
X198834523Y-116642261D01*
X198882142Y-116547023D01*
X198882142Y-116499404D01*
X198834523Y-116404166D01*
X198739285Y-116356547D01*
X198596428Y-116356547D01*
X198501190Y-116308928D01*
X198453571Y-116213690D01*
X198453571Y-116166071D01*
X198501190Y-116070833D01*
X198596428Y-116023214D01*
X198739285Y-116023214D01*
X198834523Y-116070833D01*
X199310714Y-116023214D02*
X199310714Y-117023214D01*
X199310714Y-116070833D02*
X199405952Y-116023214D01*
X199596428Y-116023214D01*
X199691666Y-116070833D01*
X199739285Y-116118452D01*
X199786904Y-116213690D01*
X199786904Y-116499404D01*
X199739285Y-116594642D01*
X199691666Y-116642261D01*
X199596428Y-116689880D01*
X199405952Y-116689880D01*
X199310714Y-116642261D01*
X200644047Y-116689880D02*
X200644047Y-116166071D01*
X200596428Y-116070833D01*
X200501190Y-116023214D01*
X200310714Y-116023214D01*
X200215476Y-116070833D01*
X200644047Y-116642261D02*
X200548809Y-116689880D01*
X200310714Y-116689880D01*
X200215476Y-116642261D01*
X200167857Y-116547023D01*
X200167857Y-116451785D01*
X200215476Y-116356547D01*
X200310714Y-116308928D01*
X200548809Y-116308928D01*
X200644047Y-116261309D01*
X201548809Y-116642261D02*
X201453571Y-116689880D01*
X201263095Y-116689880D01*
X201167857Y-116642261D01*
X201120238Y-116594642D01*
X201072619Y-116499404D01*
X201072619Y-116213690D01*
X201120238Y-116118452D01*
X201167857Y-116070833D01*
X201263095Y-116023214D01*
X201453571Y-116023214D01*
X201548809Y-116070833D01*
X202358333Y-116642261D02*
X202263095Y-116689880D01*
X202072619Y-116689880D01*
X201977380Y-116642261D01*
X201929761Y-116547023D01*
X201929761Y-116166071D01*
X201977380Y-116070833D01*
X202072619Y-116023214D01*
X202263095Y-116023214D01*
X202358333Y-116070833D01*
X202405952Y-116166071D01*
X202405952Y-116261309D01*
X201929761Y-116356547D01*
X203358333Y-116689880D02*
X202786904Y-116689880D01*
X203072619Y-116689880D02*
X203072619Y-115689880D01*
X202977380Y-115832738D01*
X202882142Y-115927976D01*
X202786904Y-115975595D01*
D11*
G04 #@! TO.C,RV1*
X69830000Y-105023500D02*
X69830000Y-108407500D01*
X71877000Y-33167500D02*
X69830000Y-33167500D01*
X75025000Y-33167500D02*
X73522000Y-33167500D01*
X79070000Y-108407500D02*
X77023000Y-108407500D01*
X75950000Y-100787500D02*
X72950000Y-100787500D01*
X76700000Y-32362500D02*
X75700000Y-32362500D01*
X75700000Y-32362500D02*
X76200000Y-32862500D01*
X79070000Y-33167500D02*
X77375000Y-33167500D01*
X75200000Y-100037500D02*
X74450000Y-100787500D01*
X79070000Y-103823500D02*
X79070000Y-108407500D01*
X74450000Y-100787500D02*
X73700000Y-100037500D01*
X76200000Y-32862500D02*
X76700000Y-32362500D01*
X69830000Y-39823500D02*
X69830000Y-101752500D01*
X75950000Y-40787500D02*
X72950000Y-40787500D01*
X79070000Y-33167500D02*
X79070000Y-37752500D01*
X74450000Y-40787500D02*
X73700000Y-41537500D01*
X74450000Y-40787500D02*
X74450000Y-100787500D01*
X75200000Y-41537500D02*
X74450000Y-40787500D01*
X69830000Y-33167500D02*
X69830000Y-36552500D01*
X79070000Y-41023500D02*
X79070000Y-100552500D01*
X75377000Y-108407500D02*
X69830000Y-108407500D01*
G04 #@! TO.C,RV2*
X60020000Y-41023500D02*
X60020000Y-100552500D01*
X56150000Y-41537500D02*
X55400000Y-40787500D01*
X56900000Y-40787500D02*
X53900000Y-40787500D01*
X50780000Y-33167500D02*
X50780000Y-36552500D01*
X56900000Y-100787500D02*
X53900000Y-100787500D01*
X60020000Y-103823500D02*
X60020000Y-108407500D01*
X55400000Y-40787500D02*
X55400000Y-100787500D01*
X57150000Y-32862500D02*
X57650000Y-32362500D01*
X57650000Y-32362500D02*
X56650000Y-32362500D01*
X50780000Y-39823500D02*
X50780000Y-101752500D01*
X52827000Y-33167500D02*
X50780000Y-33167500D01*
X56327000Y-108407500D02*
X50780000Y-108407500D01*
X55400000Y-100787500D02*
X54650000Y-100037500D01*
X60020000Y-108407500D02*
X57973000Y-108407500D01*
X50780000Y-105023500D02*
X50780000Y-108407500D01*
X56150000Y-100037500D02*
X55400000Y-100787500D01*
X56650000Y-32362500D02*
X57150000Y-32862500D01*
X55400000Y-40787500D02*
X54650000Y-41537500D01*
X55975000Y-33167500D02*
X54472000Y-33167500D01*
X60020000Y-33167500D02*
X60020000Y-37752500D01*
X60020000Y-33167500D02*
X58325000Y-33167500D01*
G04 #@! TO.C,RV3*
X40970000Y-33167500D02*
X39275000Y-33167500D01*
X36350000Y-40787500D02*
X35600000Y-41537500D01*
X40970000Y-108407500D02*
X38923000Y-108407500D01*
X36350000Y-40787500D02*
X36350000Y-100787500D01*
X37600000Y-32362500D02*
X38100000Y-32862500D01*
X40970000Y-41023500D02*
X40970000Y-100552500D01*
X40970000Y-33167500D02*
X40970000Y-37752500D01*
X31730000Y-105023500D02*
X31730000Y-108407500D01*
X31730000Y-33167500D02*
X31730000Y-36552500D01*
X40970000Y-103823500D02*
X40970000Y-108407500D01*
X37850000Y-40787500D02*
X34850000Y-40787500D01*
X31730000Y-39823500D02*
X31730000Y-101752500D01*
X36925000Y-33167500D02*
X35422000Y-33167500D01*
X37100000Y-100037500D02*
X36350000Y-100787500D01*
X38600000Y-32362500D02*
X37600000Y-32362500D01*
X36350000Y-100787500D02*
X35600000Y-100037500D01*
X37277000Y-108407500D02*
X31730000Y-108407500D01*
X33777000Y-33167500D02*
X31730000Y-33167500D01*
X38100000Y-32862500D02*
X38600000Y-32362500D01*
X37100000Y-41537500D02*
X36350000Y-40787500D01*
X37850000Y-100787500D02*
X34850000Y-100787500D01*
G04 #@! TD*
M02*
