M48
; DRILL file {KiCad 6.0.2} date Tue 08 Mar 2022 08:49:29 PM EST
; FORMAT={-:-/ absolute / metric / decimal}
; #@! TF.CreationDate,2022-03-08T20:49:29-05:00
; #@! TF.GenerationSoftware,Kicad,Pcbnew,6.0.2
; #@! TF.FileFunction,NonPlated,1,2,NPTH
FMAT,2
METRIC
; #@! TA.AperFunction,NonPlated,NPTH,ComponentDrill
T1C0.650
; #@! TA.AperFunction,NonPlated,NPTH,ComponentDrill
T2C1.702
; #@! TA.AperFunction,NonPlated,NPTH,ComponentDrill
T3C3.000
; #@! TA.AperFunction,NonPlated,NPTH,ComponentDrill
T4C3.048
; #@! TA.AperFunction,NonPlated,NPTH,ComponentDrill
T5C3.050
; #@! TA.AperFunction,NonPlated,NPTH,ComponentDrill
T6C3.988
; #@! TA.AperFunction,NonPlated,NPTH,ComponentDrill
T7C4.000
%
G90
G05
T1
X101.56Y-27.2
X107.34Y-27.2
T2
X90.17Y-34.038
X100.33Y-34.038
X104.457Y-53.087
X104.457Y-72.138
X106.839Y-91.188
X109.22Y-34.038
X109.22Y-110.237
X114.617Y-53.087
X114.617Y-72.138
X116.999Y-91.188
X119.38Y-34.038
X119.38Y-110.237
X128.27Y-34.038
X128.27Y-53.087
X128.27Y-72.138
X128.27Y-91.188
X133.032Y-110.237
X138.43Y-34.038
X138.43Y-53.087
X138.43Y-72.138
X138.43Y-91.188
X143.192Y-110.237
X147.32Y-34.038
X147.32Y-53.087
X147.32Y-72.138
X147.32Y-91.188
X156.845Y-110.237
X157.48Y-34.038
X157.48Y-53.087
X157.48Y-72.138
X157.48Y-91.188
X166.37Y-34.038
X166.37Y-53.087
X166.37Y-72.138
X166.37Y-91.188
X167.005Y-110.237
X176.53Y-34.038
X176.53Y-53.087
X176.53Y-72.138
X176.53Y-91.188
X185.42Y-34.038
X185.42Y-53.087
X185.42Y-72.138
X185.42Y-91.188
X185.42Y-110.237
X194.945Y-110.237
X195.58Y-34.038
X195.58Y-53.087
X195.58Y-72.138
X195.58Y-91.188
X195.58Y-110.237
X204.47Y-34.038
X204.47Y-53.087
X204.47Y-72.138
X204.47Y-91.188
X205.105Y-110.237
X206.851Y-110.237
X214.63Y-34.038
X214.63Y-53.087
X214.63Y-72.138
X214.63Y-91.188
X217.011Y-110.237
X223.52Y-34.038
X223.52Y-53.087
X223.52Y-72.138
X223.52Y-91.188
X223.52Y-110.237
X233.68Y-34.038
X233.68Y-53.087
X233.68Y-72.138
X233.68Y-91.188
X233.68Y-110.237
X242.57Y-34.038
X242.57Y-53.087
X242.57Y-72.138
X242.57Y-91.188
X244.951Y-110.237
X252.73Y-34.038
X252.73Y-53.087
X252.73Y-72.138
X252.73Y-91.188
X254.476Y-110.237
X255.111Y-110.237
X261.62Y-34.038
X261.62Y-53.087
X261.62Y-72.138
X261.62Y-91.188
X264.636Y-110.237
X271.78Y-34.038
X271.78Y-53.087
X271.78Y-72.138
X271.78Y-91.188
X278.289Y-110.237
X280.67Y-34.038
X280.67Y-53.087
X280.67Y-72.138
X280.67Y-91.188
X288.449Y-110.237
X290.83Y-34.038
X290.83Y-53.087
X290.83Y-72.138
X290.83Y-91.188
X299.72Y-34.038
X299.72Y-53.087
X299.72Y-72.138
X299.72Y-91.188
X299.72Y-110.237
X309.88Y-34.038
X309.88Y-53.087
X309.88Y-72.138
X309.88Y-91.188
X309.88Y-110.237
X318.77Y-34.038
X318.77Y-72.138
X323.532Y-91.188
X325.914Y-53.087
X325.914Y-72.138
X325.914Y-91.188
X328.295Y-53.087
X328.93Y-34.038
X328.93Y-72.138
X333.692Y-91.188
X336.074Y-53.087
X336.074Y-72.138
X336.074Y-91.188
X337.82Y-34.038
X337.82Y-72.138
X337.82Y-115.0
X338.455Y-53.087
X347.98Y-34.038
X347.98Y-72.138
X347.98Y-115.0
X356.87Y-95.95
X356.87Y-115.0
X361.632Y-34.038
X361.632Y-53.087
X361.632Y-72.138
X367.03Y-95.95
X367.03Y-115.0
X371.792Y-34.038
X371.792Y-53.087
X371.792Y-72.138
X375.92Y-115.0
X380.683Y-34.038
X380.683Y-53.087
X380.683Y-72.138
X380.683Y-91.188
X386.08Y-115.0
X390.842Y-34.038
X390.842Y-53.087
X390.842Y-72.138
X390.842Y-91.188
T3
X92.71Y-39.117
X99.06Y-36.578
X106.997Y-58.167
X106.997Y-77.218
X109.379Y-96.267
X111.76Y-39.117
X111.76Y-115.317
X113.347Y-55.627
X113.347Y-74.677
X115.729Y-93.727
X118.11Y-36.578
X118.11Y-112.777
X130.81Y-39.117
X130.81Y-58.167
X130.81Y-77.218
X130.81Y-96.267
X135.572Y-115.317
X137.16Y-36.578
X137.16Y-55.627
X137.16Y-74.677
X137.16Y-93.727
X141.922Y-112.777
X149.86Y-39.117
X149.86Y-58.167
X149.86Y-77.218
X149.86Y-96.267
X156.21Y-36.578
X156.21Y-55.627
X156.21Y-74.677
X156.21Y-93.727
X159.385Y-115.317
X165.735Y-112.777
X168.91Y-39.117
X168.91Y-58.167
X168.91Y-77.218
X168.91Y-96.267
X175.26Y-36.578
X175.26Y-55.627
X175.26Y-74.677
X175.26Y-93.727
X187.96Y-39.117
X187.96Y-58.167
X187.96Y-77.218
X187.96Y-96.267
X187.96Y-115.317
X194.31Y-36.578
X194.31Y-55.627
X194.31Y-74.677
X194.31Y-93.727
X194.31Y-112.777
X196.215Y-107.697
X202.565Y-105.157
X207.01Y-39.117
X207.01Y-58.167
X207.01Y-77.218
X207.01Y-96.267
X209.391Y-115.317
X213.36Y-36.578
X213.36Y-55.627
X213.36Y-74.677
X213.36Y-93.727
X215.741Y-112.777
X224.79Y-107.697
X226.06Y-39.117
X226.06Y-58.167
X226.06Y-77.218
X226.06Y-96.267
X231.14Y-105.157
X232.41Y-36.578
X232.41Y-55.627
X232.41Y-74.677
X232.41Y-93.727
X245.11Y-39.117
X245.11Y-58.167
X245.11Y-77.218
X245.11Y-96.267
X246.221Y-107.697
X251.46Y-36.578
X251.46Y-55.627
X251.46Y-74.677
X251.46Y-93.727
X252.571Y-105.157
X257.016Y-115.317
X263.366Y-112.777
X264.16Y-39.117
X264.16Y-58.167
X264.16Y-77.218
X264.16Y-96.267
X270.51Y-36.578
X270.51Y-55.627
X270.51Y-74.677
X270.51Y-93.727
X280.829Y-115.317
X283.21Y-39.117
X283.21Y-58.167
X283.21Y-77.218
X283.21Y-96.267
X287.179Y-112.777
X289.56Y-36.578
X289.56Y-55.627
X289.56Y-74.677
X289.56Y-93.727
X302.26Y-39.117
X302.26Y-58.167
X302.26Y-77.218
X302.26Y-96.267
X302.26Y-115.317
X308.61Y-36.578
X308.61Y-55.627
X308.61Y-74.677
X308.61Y-93.727
X308.61Y-112.777
X320.04Y-69.597
X321.31Y-39.117
X324.803Y-88.647
X326.39Y-67.057
X327.66Y-36.578
X328.454Y-58.167
X328.454Y-77.218
X328.454Y-96.267
X329.565Y-50.547
X331.152Y-86.108
X334.804Y-55.627
X334.804Y-74.677
X334.804Y-93.727
X335.915Y-48.008
X339.09Y-69.597
X340.36Y-39.117
X340.36Y-120.08
X345.44Y-67.057
X346.71Y-36.578
X346.71Y-117.54
X359.41Y-101.03
X359.41Y-120.08
X364.172Y-39.117
X364.172Y-58.167
X364.172Y-77.218
X365.76Y-98.49
X365.76Y-117.54
X370.522Y-36.578
X370.522Y-55.627
X370.522Y-74.677
X378.46Y-120.08
X383.222Y-39.117
X383.222Y-58.167
X383.222Y-77.218
X383.222Y-96.267
X384.81Y-117.54
X389.572Y-36.578
X389.572Y-55.627
X389.572Y-74.677
X389.572Y-93.727
T4
X161.931Y-103.252
X180.975Y-103.252
X219.075Y-103.252
X261.931Y-103.252
X321.437Y-46.102
X345.313Y-46.102
T5
X238.093Y-103.237
X261.969Y-103.237
T6
X95.25Y-34.038
X109.537Y-53.087
X109.537Y-72.138
X111.919Y-91.188
X114.3Y-34.038
X114.3Y-110.237
X133.35Y-34.038
X133.35Y-53.087
X133.35Y-72.138
X133.35Y-91.188
X138.112Y-110.237
X152.4Y-34.038
X152.4Y-53.087
X152.4Y-72.138
X152.4Y-91.188
X161.925Y-110.237
X161.931Y-118.462
X171.45Y-34.038
X171.45Y-53.087
X171.45Y-72.138
X171.45Y-91.188
X180.975Y-118.462
X190.5Y-34.038
X190.5Y-53.087
X190.5Y-72.138
X190.5Y-91.188
X190.5Y-110.237
X200.025Y-110.237
X209.55Y-34.038
X209.55Y-53.087
X209.55Y-72.138
X209.55Y-91.188
X211.931Y-110.237
X219.075Y-118.462
X228.6Y-34.038
X228.6Y-53.087
X228.6Y-72.138
X228.6Y-91.188
X228.6Y-110.237
X247.65Y-34.038
X247.65Y-53.087
X247.65Y-72.138
X247.65Y-91.188
X250.031Y-110.237
X259.556Y-110.237
X261.931Y-118.462
X266.7Y-34.038
X266.7Y-53.087
X266.7Y-72.138
X266.7Y-91.188
X283.369Y-110.237
X285.75Y-34.038
X285.75Y-53.087
X285.75Y-72.138
X285.75Y-91.188
X304.8Y-34.038
X304.8Y-53.087
X304.8Y-72.138
X304.8Y-91.188
X304.8Y-110.237
X321.437Y-61.312
X323.85Y-34.038
X323.85Y-72.138
X328.613Y-91.188
X330.994Y-53.087
X330.994Y-72.138
X330.994Y-91.188
X333.375Y-53.087
X342.9Y-34.038
X342.9Y-72.138
X342.9Y-115.0
X345.313Y-61.312
X361.95Y-95.95
X361.95Y-115.0
X366.712Y-34.038
X366.712Y-53.087
X366.712Y-72.138
X381.0Y-115.0
X385.762Y-34.038
X385.762Y-53.087
X385.762Y-72.138
X385.762Y-91.188
T7
X238.093Y-118.477
X261.969Y-118.477
T0
M30
