M48
; DRILL file {KiCad 6.0.2} date Tue 08 Mar 2022 08:49:29 PM EST
; FORMAT={-:-/ absolute / metric / decimal}
; #@! TF.CreationDate,2022-03-08T20:49:29-05:00
; #@! TF.GenerationSoftware,Kicad,Pcbnew,6.0.2
; #@! TF.FileFunction,Plated,1,2,PTH
FMAT,2
METRIC
; #@! TA.AperFunction,Plated,PTH,ViaDrill
T1C0.300
; #@! TA.AperFunction,Plated,PTH,ComponentDrill
T2C0.350
; #@! TA.AperFunction,Plated,PTH,ViaDrill
T3C0.400
; #@! TA.AperFunction,Plated,PTH,ComponentDrill
T4C0.400
; #@! TA.AperFunction,Plated,PTH,ViaDrill
T5C0.500
; #@! TA.AperFunction,Plated,PTH,ComponentDrill
T6C0.600
; #@! TA.AperFunction,Plated,PTH,ComponentDrill
T7C1.200
; #@! TA.AperFunction,Plated,PTH,ComponentDrill
T8C1.700
; #@! TA.AperFunction,Plated,PTH,ComponentDrill
T9C2.200
%
G90
G05
T1
X87.698Y-52.823
X88.4Y-49.0
X90.0Y-56.0
X92.089Y-43.77
X94.225Y-55.715
X94.35Y-43.95
X95.1Y-46.025
X96.15Y-46.05
X96.4Y-58.0
X96.551Y-62.551
X99.081Y-60.996
X99.591Y-61.611
X99.942Y-60.176
X100.05Y-100.3
X100.15Y-62.45
X100.273Y-117.5
X100.474Y-60.833
X100.65Y-59.2
X100.65Y-93.35
X100.95Y-119.15
X101.48Y-118.13
X104.2Y-68.4
X108.85Y-63.8
X120.85Y-100.55
X130.262Y-81.138
T2
X92.925Y-58.925
X92.925Y-60.2
X92.925Y-61.475
X94.2Y-58.925
X94.2Y-60.2
X94.2Y-61.475
X95.475Y-58.925
X95.475Y-60.2
X95.475Y-61.475
T3
X92.4Y-65.0
X95.6Y-64.85
X98.69Y-53.134
X99.4Y-57.1
X99.691Y-53.201
X100.688Y-53.138
X105.1Y-36.45
X108.85Y-62.05
X109.5Y-56.526
X111.15Y-45.224
X115.0Y-64.95
X117.05Y-85.25
X117.1Y-53.6
X117.1Y-72.65
X118.0Y-78.15
X119.45Y-91.75
X119.5Y-95.95
X121.85Y-38.75
X121.85Y-110.8
X127.45Y-48.95
X132.1Y-43.05
X139.25Y-63.0
X140.9Y-38.7
X140.9Y-53.7
X140.9Y-57.7
X140.9Y-72.7
X140.9Y-76.8
X140.9Y-91.7
X140.9Y-95.8
X143.5Y-43.05
X145.7Y-110.8
X149.35Y-43.05
X159.89Y-38.71
X159.89Y-53.71
X159.89Y-57.71
X159.89Y-72.71
X159.89Y-76.81
X159.89Y-91.71
X178.99Y-38.51
X178.99Y-53.51
X178.99Y-57.51
X178.99Y-72.51
X178.99Y-76.61
X178.99Y-91.51
X179.0Y-95.95
X198.09Y-38.61
X198.09Y-53.61
X198.09Y-57.61
X198.09Y-72.61
X198.09Y-76.71
X198.09Y-91.61
X198.1Y-95.9
X217.09Y-38.71
X217.09Y-53.71
X217.09Y-57.71
X217.09Y-72.71
X217.09Y-76.81
X217.09Y-91.71
X217.1Y-96.0
X236.09Y-38.71
X236.09Y-53.71
X236.09Y-57.71
X236.09Y-72.71
X236.09Y-76.81
X236.09Y-91.71
X236.1Y-95.7
X242.45Y-104.9
X255.19Y-38.71
X255.19Y-53.71
X255.19Y-57.71
X255.19Y-72.71
X255.19Y-76.81
X255.19Y-91.71
X255.2Y-95.85
X274.25Y-96.3
X274.25Y-109.0
X274.29Y-38.61
X274.29Y-53.61
X274.29Y-57.61
X274.29Y-72.61
X274.29Y-76.71
X274.29Y-91.61
X278.0Y-122.3
X280.362Y-120.112
X290.7Y-110.6
X293.29Y-38.71
X293.29Y-53.71
X293.29Y-57.71
X293.29Y-72.71
X293.29Y-76.81
X293.29Y-91.71
X293.3Y-96.05
X312.35Y-95.75
X312.35Y-110.65
X312.39Y-38.71
X312.39Y-53.71
X312.39Y-57.71
X312.39Y-72.71
X312.39Y-76.81
X312.39Y-91.71
X321.65Y-75.95
X327.74Y-48.623
X330.15Y-69.15
X331.35Y-38.75
X338.55Y-96.05
X338.554Y-86.585
X339.65Y-72.05
X340.65Y-55.6
X350.45Y-38.65
X350.5Y-115.6
X369.5Y-100.7
X369.5Y-115.6
X374.25Y-57.7
X374.3Y-38.65
X374.3Y-76.8
X388.6Y-115.1
X393.35Y-38.65
X393.35Y-57.65
X393.35Y-76.75
X393.35Y-95.75
T4
X119.793Y-53.087
X120.277Y-51.921
X120.277Y-54.254
X121.444Y-51.438
X121.444Y-54.737
X122.61Y-51.921
X122.61Y-54.254
X123.093Y-53.087
X124.556Y-110.237
X125.039Y-109.071
X125.039Y-111.404
X126.206Y-108.587
X126.206Y-111.887
X127.373Y-109.071
X127.373Y-111.404
X127.856Y-110.237
X217.39Y-62.71
X217.873Y-61.543
X217.873Y-63.877
X219.04Y-61.06
X219.04Y-64.36
X220.207Y-61.543
X220.207Y-63.877
X220.69Y-62.71
X293.75Y-110.1
X294.233Y-108.933
X294.233Y-111.267
X295.4Y-108.45
X295.4Y-111.75
X296.567Y-108.933
X296.567Y-111.267
X297.05Y-110.1
X343.663Y-53.312
X344.146Y-52.146
X344.146Y-54.479
X345.313Y-51.662
X345.313Y-54.962
X346.48Y-52.146
X346.48Y-54.479
X346.963Y-53.312
T5
X81.51Y-35.22
X85.775Y-61.725
X86.4Y-52.9
X86.6Y-59.8
X87.166Y-55.984
X87.6Y-46.4
X87.95Y-58.792
X88.8Y-30.59
X88.814Y-55.436
X89.3Y-58.0
X90.0Y-68.55
X90.03Y-48.93
X90.8Y-29.925
X91.225Y-52.475
X92.3Y-97.8
X92.5Y-67.2
X92.6Y-107.35
X92.625Y-26.8
X93.1Y-74.65
X97.02Y-72.86
X97.5Y-40.23
X97.72Y-118.16
X97.775Y-44.625
X97.875Y-26.95
X97.9Y-112.95
X97.975Y-32.025
X98.2Y-86.25
X98.2Y-88.45
X98.2Y-103.699
X98.45Y-70.45
X100.425Y-31.9
X101.484Y-84.85
X101.7Y-67.85
X103.25Y-65.5
X104.2Y-29.775
X104.2Y-31.325
X105.55Y-74.3
X105.81Y-33.4
X107.25Y-107.5
X108.596Y-88.619
X108.7Y-30.05
X109.481Y-102.35
X114.1Y-26.2
X115.55Y-48.6
X116.014Y-87.325
X118.75Y-28.15
X119.15Y-67.933
X119.4Y-105.65
X120.3Y-48.55
X121.45Y-46.3
X122.442Y-87.842
X124.15Y-78.65
X124.15Y-85.4
X125.15Y-89.5
X125.2Y-67.95
X126.029Y-31.494
X127.1Y-85.85
X127.65Y-46.7
X127.9Y-105.55
X128.0Y-27.35
X129.219Y-49.717
X130.2Y-62.9
X130.8Y-105.95
X136.575Y-122.2
X138.2Y-48.05
X138.2Y-84.55
X138.35Y-67.5
X141.95Y-67.45
X142.2Y-84.55
X145.0Y-68.1
X145.55Y-86.35
X146.95Y-27.3
X147.2Y-46.75
X147.4Y-103.4
X149.7Y-65.135
X151.8Y-103.05
X157.1Y-86.1
X157.2Y-48.05
X158.95Y-66.45
X159.8Y-96.45
X161.0Y-106.1
X162.4Y-66.4
X165.5Y-85.45
X166.05Y-27.3
X166.1Y-46.9
X168.85Y-65.135
X169.45Y-110.35
X176.25Y-48.05
X176.3Y-86.15
X177.5Y-67.25
X180.25Y-84.9
X182.25Y-65.55
X184.8Y-85.1
X184.95Y-46.9
X185.0Y-66.05
X185.15Y-27.3
X193.858Y-102.65
X195.25Y-48.05
X195.4Y-86.2
X195.45Y-67.4
X203.45Y-85.45
X203.95Y-27.85
X203.95Y-46.75
X204.2Y-65.85
X211.5Y-119.25
X213.7Y-121.45
X214.25Y-29.1
X214.25Y-86.95
X214.35Y-48.05
X214.6Y-67.4
X214.8Y-99.3
X217.65Y-67.4
X219.05Y-85.55
X221.55Y-86.8
X221.95Y-67.4
X223.1Y-46.8
X223.2Y-27.3
X233.3Y-48.05
X233.45Y-67.05
X233.45Y-86.2
X235.7Y-115.0
X239.1Y-113.0
X241.7Y-85.75
X241.8Y-66.55
X242.15Y-27.75
X242.15Y-46.9
X248.8Y-119.15
X250.1Y-113.3
X252.25Y-48.1
X252.35Y-28.95
X252.4Y-67.1
X252.6Y-86.2
X253.15Y-111.95
X259.5Y-106.4
X260.2Y-66.9
X261.2Y-46.85
X261.35Y-27.3
X261.4Y-85.15
X262.85Y-109.4
X269.675Y-107.975
X271.45Y-86.15
X271.5Y-48.05
X271.55Y-67.05
X275.2Y-105.9
X278.183Y-104.033
X280.05Y-66.3
X280.35Y-85.05
X280.4Y-27.3
X280.4Y-46.9
X288.0Y-106.175
X290.3Y-48.1
X290.4Y-86.2
X290.45Y-67.05
X298.95Y-66.25
X299.35Y-85.0
X299.4Y-27.3
X299.45Y-103.489
X299.5Y-46.95
X309.25Y-66.85
X309.35Y-48.15
X309.6Y-86.25
X309.65Y-105.2
X315.4Y-55.5
X318.45Y-27.35
X325.25Y-54.85
X337.25Y-108.05
X337.4Y-27.8
X342.4Y-48.05
X346.75Y-74.63
X347.6Y-29.0
X347.7Y-110.6
X349.25Y-69.45
X349.25Y-81.577
X350.63Y-74.65
X350.85Y-58.04
X356.576Y-109.126
X357.85Y-87.95
X361.15Y-46.55
X361.3Y-27.35
X361.35Y-66.05
X363.58Y-73.76
X366.8Y-91.0
X366.95Y-110.75
X368.45Y-114.15
X371.3Y-47.2
X371.6Y-67.25
X373.0Y-111.15
X373.05Y-94.1
X374.45Y-108.3
X376.7Y-41.9
X376.7Y-60.15
X376.7Y-79.2
X380.1Y-85.5
X380.15Y-27.35
X380.2Y-66.35
X380.533Y-47.083
X385.85Y-110.9
X390.65Y-87.05
X390.95Y-68.05
T7
X34.6Y-34.038
X38.1Y-34.038
X38.1Y-107.537
X53.65Y-34.038
X57.15Y-34.038
X57.15Y-107.537
X72.7Y-34.038
X76.2Y-34.038
X76.2Y-107.537
T8
X32.15Y-38.188
X32.15Y-103.387
X40.55Y-39.387
X40.55Y-102.188
X51.2Y-38.188
X51.2Y-103.387
X59.6Y-39.387
X59.6Y-102.188
X70.25Y-38.188
X70.25Y-103.387
X78.65Y-39.387
X78.65Y-102.188
T9
X121.444Y-53.087
X126.206Y-110.237
X219.04Y-62.71
X295.4Y-110.1
X345.313Y-53.312
T6
G00X100.13Y-23.25
M15
G01X100.13Y-23.85
M16
G05
G00X100.13Y-27.18
M15
G01X100.13Y-28.28
M16
G05
G00X108.77Y-23.25
M15
G01X108.77Y-23.85
M16
G05
G00X108.77Y-27.18
M15
G01X108.77Y-28.28
M16
G05
T0
M30
